<svg width="244" height="239" fill="none" xmlns="http://www.w3.org/2000/svg"><path d="M211.078 51.078l9.844 9.844L104 177.953l-60.922-61.031 9.844-9.844L104 158.047 211.078 51.078z" fill="#2F80ED"/><path fill-rule="evenodd" clip-rule="evenodd" d="M178.487 54.013C159.531 36.618 134.256 26 106.5 26 47.682 26 0 73.682 0 132.5S47.682 239 106.5 239 213 191.318 213 132.5c0-5.228-.377-10.369-1.105-15.395l-13.907 13.907c.008.495.012.991.012 1.488 0 50.534-40.966 91.5-91.5 91.5S15 183.034 15 132.5 55.966 41 106.5 41c23.613 0 45.138 8.945 61.369 23.63l10.618-10.617z" fill="#2F80ED"/></svg>