<svg width="104" height="104" fill="none" xmlns="http://www.w3.org/2000/svg"><rect width="104" height="104" rx="5" fill="#FFDE31"/><path d="M46.344 50.188h6.89v27.918c0 3.81-1.194 6.835-3.582 9.078-2.37 2.242-5.505 3.363-9.406 3.363-4.156 0-7.364-1.048-9.625-3.145-2.26-2.096-3.39-5.013-3.39-8.75h6.89c0 2.115.52 3.71 1.559 4.785 1.057 1.058 2.58 1.586 4.566 1.586 1.86 0 3.336-.61 4.43-1.832 1.112-1.24 1.668-2.944 1.668-5.113v-27.89zm35.629 29.558c0-1.75-.62-3.099-1.86-4.047-1.221-.948-3.436-1.905-6.644-2.87-3.209-.967-5.76-2.042-7.656-3.227-3.628-2.28-5.442-5.25-5.442-8.915 0-3.208 1.303-5.851 3.91-7.93 2.625-2.077 6.025-3.116 10.2-3.116 2.77 0 5.24.51 7.41 1.53 2.169 1.022 3.873 2.48 5.113 4.376 1.24 1.878 1.86 3.965 1.86 6.262h-6.891c0-2.078-.657-3.7-1.97-4.868-1.293-1.184-3.153-1.777-5.577-1.777-2.26 0-4.02.483-5.278 1.45-1.24.965-1.859 2.314-1.859 4.046 0 1.459.674 2.68 2.023 3.664 1.35.966 3.573 1.914 6.672 2.844 3.1.911 5.588 1.96 7.465 3.144 1.878 1.167 3.254 2.516 4.13 4.047.874 1.513 1.312 3.29 1.312 5.332 0 3.318-1.276 5.961-3.829 7.93-2.533 1.95-5.979 2.926-10.335 2.926-2.88 0-5.533-.529-7.958-1.586-2.406-1.076-4.283-2.552-5.632-4.43-1.331-1.877-1.996-4.065-1.996-6.562h6.918c0 2.26.747 4.01 2.242 5.25 1.495 1.24 3.636 1.86 6.426 1.86 2.406 0 4.21-.484 5.414-1.45 1.221-.985 1.832-2.279 1.832-3.883z" fill="#000"/></svg>