<svg width="65" height="42" fill="none" xmlns="http://www.w3.org/2000/svg"><path d="M31.813 6.766H19.398V41h-6.863V6.766H.23V1.187h31.582v5.579zm25.62 23.98c0-1.75-.62-3.099-1.859-4.047-1.221-.948-3.436-1.905-6.644-2.87-3.209-.967-5.76-2.043-7.657-3.227-3.627-2.28-5.441-5.25-5.441-8.915 0-3.208 1.303-5.851 3.91-7.93C42.367 1.68 45.767.642 49.942.642c2.77 0 5.24.51 7.41 1.53 2.169 1.022 3.873 2.48 5.113 4.376 1.24 1.877 1.86 3.965 1.86 6.262h-6.891c0-2.079-.657-3.7-1.97-4.868-1.293-1.184-3.153-1.777-5.577-1.777-2.26 0-4.02.483-5.278 1.45-1.24.965-1.859 2.314-1.859 4.046 0 1.458.675 2.68 2.023 3.664 1.35.966 3.573 1.914 6.672 2.844 3.1.911 5.588 1.96 7.465 3.145 1.878 1.166 3.254 2.515 4.13 4.046.874 1.513 1.312 3.29 1.312 5.332 0 3.318-1.277 5.961-3.829 7.93-2.533 1.95-5.979 2.926-10.336 2.926-2.88 0-5.532-.529-7.956-1.586-2.407-1.076-4.284-2.552-5.633-4.43-1.331-1.877-1.996-4.065-1.996-6.562h6.918c0 2.26.747 4.01 2.242 5.25 1.495 1.24 3.636 1.86 6.425 1.86 2.407 0 4.211-.484 5.415-1.45 1.22-.984 1.832-2.279 1.832-3.883z" fill="#fff"/></svg>