<svg width="161" height="223" fill="none" xmlns="http://www.w3.org/2000/svg"><rect x="28.213" y="115" width="5" height="43" rx="2.5" fill="#fff"/><rect x="78.213" y="177.36" width="5" height="45" rx="2.5" fill="#fff"/><rect x="78.213" y="148.36" width="5" height="20" rx="2.5" fill="#fff"/><rect x="52.787" y="170.36" width="5" height="28" rx="2.5" fill="#fff"/><rect x="99.787" y="170.36" width="5" height="32" rx="2.5" fill="#fff"/><rect x="125.213" y="142" width="5" height="43" rx="2.5" fill="#fff"/><rect x="125.213" y="108" width="5" height="21" rx="2.5" fill="#fff"/><path d="M55.213 108h20c16.569 0 30 13.431 30 30v20l-25-25-25 25v-50zm25-108l21.651 37.5H58.562L80.213 0z" fill="#fff"/><path fill-rule="evenodd" clip-rule="evenodd" d="M46.213 48c-16.568 0-30 13.431-30 30v20h67.292C68.37 96.47 56.557 83.692 56.557 68.153V48H46.213zm33.241 0c15.21 1.457 27.103 14.27 27.103 29.862V98h37.656V78c0-16.569-13.431-30-30-30H79.454z" fill="#fff"/></svg>