<?xml version="1.0" standalone="yes"?>
<svg xmlns="http://www.w3.org/2000/svg" width="1497" height="70">
<path style="fill:#000000; stroke:none;" d="M0 0L0 19L29 19C19.6989 21.8262 9.61635 21 0 21C2.88844 22.212 5.89534 21.918 9 22.2855C21.2688 23.7377 33.6721 21.0082 46 21C45.4023 19.8046 45.5339 20.0226 44 19C45.7968 19 45.5215 18.9857 47 18C49.8926 21.3061 55.0906 19.4044 59 18.7531C68.6371 17.1475 78.3325 15.0864 88 13.8102C110.343 10.8608 132.439 8.02726 155 7.03935C174.045 6.2054 192.989 8 212 8L210 9C213.805 9.48772 217.984 7.92428 222 8.01466C230.334 8.20222 238.631 9.89322 247 9C245.466 10.0226 245.598 9.80458 245 11C249.019 12.6958 252.67 12.9881 257 13C255.777 11.8048 255.58 11.6836 254 11C259.185 9.52475 263.74 11.8479 269 12C266.948 11.1257 265.253 11.0472 263 11C269.426 9.08281 277.28 7.62025 284 8C282.521 8.98569 282.797 9 281 9C284.163 10.3274 287.586 9.99962 291 10L291 7C297.727 7.52603 303.831 6.29762 310.576 6.82407C313.672 7.06579 316.739 8.379 319 6C328.445 8.81787 339.23 8.56418 348.999 8.56481C359.654 8.5655 370.332 9 381 9C379.521 9.98568 379.797 10 378 10C386.017 13.3641 396.322 10.249 405 13C407.557 11.6578 410.112 12.8825 413.015 12.9815C418.542 13.17 424.508 13.1604 430 12.5509C440.881 11.3435 452.056 12 463 12L518 12L516 13C522.253 15.624 529.457 12.7934 536 15C536 11.898 539.367 13 542 13C540.199 13.5618 538.878 13.8241 537 14C546.78 18.142 560.552 16 571 16C593.391 16 615.662 17 638 17L637 19L648 18C646.199 18.5618 644.878 18.8241 643 19C651.304 22.4518 663.62 16.4419 672 15C670.521 15.9858 670.797 16 669 16C676.515 18.6953 687.959 15.0129 696 15L756 15C767.869 15 780.795 13.6688 792 18C792 14.8508 802.767 16.5708 806 16.1667C810.252 15.6352 815.359 14.0164 819.667 14.8333C821.587 15.1975 822.85 16.2977 825 16C826.578 15.7815 827.5 14.4206 829 14.1667C835.678 13.0365 842.703 15.6565 849 12L848 15C851.14 15 853.68 13.17 857 14C866.528 16.3821 878.704 15 889 15C893.252 15 899.53 13.918 903 16L902 17C912.094 16.5198 922.028 18.044 932.001 17.9699C958.627 17.7721 985.323 16.0579 1012 17.0185C1022.42 17.3939 1032.82 19.1798 1043.17 19.9012C1054.42 20.6854 1065.77 19.571 1077 19.571C1092.93 19.571 1109.09 20.9402 1125 20.5448C1130.79 20.4009 1136.27 18.0374 1142 17.2816C1153.34 15.7853 1164.7 16.0356 1176 14.8264C1180.71 14.3217 1185.23 12.8433 1190 12.591C1243.72 9.75156 1297.16 8 1351 8C1349.52 8.98562 1349.8 9 1348 9C1352.32 10.8108 1357.38 9.77317 1362 10.0895C1373.68 10.8892 1385.32 11.2664 1397 12.0895C1426.46 14.1657 1455.22 21.3853 1485 22C1485 20.2032 1484.99 20.4785 1484 19L1488 19L1486 20C1489.46 21.3211 1493.29 21.8203 1497 22L1497 20L1491 20C1493.11 19.3563 1494.8 19.0941 1497 19L1497 0L0 0z"/>
<path style="fill:#ffde38; stroke:none;" d="M501 0C502.769 0.778923 504.036 0.912415 506 1C504.231 0.221046 502.964 0.0875931 501 0z"/>
<path style="fill:#ffde37; stroke:none;" d="M314 4C315.248 4.68484 315.548 4.74879 317 5C315.752 4.31525 315.451 4.25119 314 4z"/>
<path style="fill:#ffdd38; stroke:none;" d="M258 5C260.886 6.5346 263.748 6.85847 267 7C264.111 5.26908 261.339 5.07081 258 5z"/>
<path style="fill:#ffe03a; stroke:none;" d="M630.667 5.33334C630.222 5.77773 631.278 5.72221 631.333 5.66666C631.778 5.22218 630.722 5.27782 630.667 5.33334z"/>
<path style="fill:#ffdd37; stroke:none;" d="M257.333 6.66667C257.278 6.72218 257.222 7.77781 257.667 7.33333C257.722 7.27774 257.778 6.22227 257.333 6.66667z"/>
<path style="fill:#ffda35; stroke:none;" d="M291 7L291 10L281 10C282.479 9.01432 282.203 9 284 9C278.48 5.56635 269.346 9.94747 263 10C265.052 10.8743 266.747 10.9528 269 11C264.16 12.1228 259.05 10.0173 254 10C255.139 11.0154 255.612 11.3087 257 12C254.667 12.9822 252.619 13.3215 250 12.6667C248.185 12.2129 244.942 11.2864 247 10C242.728 8.32327 237.547 9.16005 233 8.96065C225.005 8.61003 217.669 6.7506 210 10L212 9C207.736 7.21081 202.578 8.09749 198 7.98534C191.311 7.82147 184.733 7 178 7C150.472 7 122.135 7.39654 95 12.4599C83.6984 14.5687 72.3528 16.3555 61 18.2469C56.3131 19.0278 51.0448 21.0168 47 18L44 19C44.6498 20.2997 44.1468 20 46 20C31.4744 24.2951 14.8817 22 0 22L0 53C3.36323 53.6245 6.57821 53.9717 10 54C8.75165 53.3152 8.45158 53.2512 7 53C12.236 51.4523 17.6018 52.2802 23 51.9105C34.6422 51.1132 46.4002 50.1436 58 48.8272C69.3682 47.537 80.7951 44.1864 92.0039 42.3002C105.723 39.9915 119.303 39.8575 133 40C131.494 39.317 130.685 39.1741 129 39C133.318 37.1778 137.423 37.1996 142 36.5748C155.998 34.664 169.884 35 184 35C201.282 35 218.736 34.2834 236 35.0394C248.994 35.6083 261.977 38.1123 275 38.5486C284.597 38.8701 294.372 38 304 38C303.35 36.7003 303.853 37 302 37C305.041 36.1004 307.831 36.0081 311 36L309 37C313.427 38.8536 318.331 37.2005 323 37L323 40L336 40L336 42L302 42C306.469 43.8751 312.191 43 317 43C327.89 43 340.487 44.8673 351 42L350 39C353.889 39.6903 358.025 39.6972 362 40C359.341 40.6751 357.688 40.5917 355 40C357.736 43.8728 362.654 42.9995 367 43C363.374 44.2274 359.826 44.8353 356 45C361.545 47.3266 369.037 45.8586 375 46.0147C379.262 46.1262 382.868 48.0249 387 48.4514C389.971 48.7581 393.005 47.9475 396 48.0432C429.319 49.108 462.567 48 496 48L491 50C495.366 53.3248 501.72 52.6537 507 53.2855C524.556 55.3863 540.576 52.2638 558.015 51.4637C583.957 50.2735 610.017 51.6887 636 51.9961C664.398 52.3321 692.642 51 721 51C719.494 50.3169 718.685 50.1741 717 50C723.171 47.2065 730.383 48.3856 737 48C735.307 46.9376 733.96 46.4804 732 46L734 45C725.479 40.4696 711.479 42 702 42C710.566 39.468 721.091 41 730 41L727 38C732.932 38.6168 737.314 36.0273 743 35.2099C749.364 34.2949 754.937 35.5752 761 37L759 42L763 41L764 44C769.951 41.6593 775.664 40.8007 782 40C780.015 41.2767 779.151 41.9808 778 44C776.483 43.0427 775.662 42.6128 774 42C774 45.8026 769.014 45 766 45C767.506 45.683 768.315 45.8259 770 46C772.531 54.5285 779.981 53.4692 787 55L783 57L783 61L787 61C782.535 62.8848 777.789 63.3942 773 64C775.262 67.4929 779.582 67.5715 783.576 67.6844C791.239 67.9011 798.745 68.7469 806.424 68.8611C816.631 69.013 826.834 66.9057 837 65.9637C852.234 64.5522 867.687 65.0721 883 64.9992C891.912 64.9568 901.137 63.8516 910 65C914.942 61.0996 925.862 62.4112 932 62.8449C941.059 63.485 949.919 62.6514 958.911 61.9591C964.012 61.5663 968.977 62.1779 974 61C973.35 59.7004 973.853 60 972 60C976.551 58.1819 984.797 55.5152 989 59C993.856 58.4779 999.889 60.3098 1003 56L1008 57C1005.57 54.2138 1001.52 55.0002 998 55C991.687 54.9996 984.978 55.1709 979 53C981.265 52.2586 982.547 51.8428 984 50C987.424 52.3619 990.965 51.625 995 51.2454C1002.41 50.5487 1009.61 48.3181 1017 48C1014.29 46.636 1012 46.686 1009 47C1014.11 43.1265 1023.78 45.0004 1030 45C1045.05 44.999 1059.93 42 1075 42L1075 45L1054 44C1055.51 44.6831 1056.31 44.8259 1058 45C1052.33 46.919 1045.92 48.1291 1040 49C1043.91 54.4475 1052.06 52.4381 1057.96 53.1289C1061.23 53.5114 1064.08 54.7392 1067.43 54.8565C1085.07 55.4748 1102.77 52.7805 1120.01 49.8843C1130.68 48.0923 1141.48 47.4056 1152 45L1150 46C1154.37 47.8166 1159.36 46.0591 1164 46.0039C1178.62 45.8299 1192.48 43.1456 1207 42L1206 44C1238.8 44 1271.16 39 1304 39C1298.56 40.6071 1292.64 40 1287 40C1288.25 40.6848 1288.55 40.7488 1290 41C1288.52 41.9857 1288.8 42 1287 42C1291.94 43.9758 1297.75 42.2772 1302.91 41.9236C1311.58 41.3301 1320.32 42 1329 42C1321.57 45.1372 1312.93 44 1305 44C1293.61 44 1282.38 45 1271 45C1278.36 48.0871 1288.44 43.0326 1295 48C1301.1 46.5298 1306.79 47.9959 1313 48C1311.49 47.3169 1310.69 47.1741 1309 47C1314.44 45.3931 1320.36 46 1326 46C1332.94 46 1340.09 45.512 1347 46.1698C1353.6 46.7983 1360.41 48.5323 1367 48.74C1370.35 48.8457 1373.62 47.9022 1377 48.0934C1417.07 50.3609 1456.79 55 1497 55L1497 22L1486 21L1488 20C1486.49 19.317 1485.69 19.1741 1484 19L1485 22C1472.18 21.4494 1459.73 19.112 1447.17 17.456C1443.77 17.0072 1440.42 18.0419 1437 17.5216C1431.65 16.7077 1426.24 13.9804 1421 13.4931C1417.4 13.158 1413.69 14.2207 1410 13.9213C1400.99 13.1909 1392.03 11.1565 1383 10.6088C1371.49 9.91099 1359.59 10 1348 10C1349.48 9.01427 1349.2 9 1351 9C1342.88 5.59343 1329.8 8 1321 8C1297.56 8 1274.34 8.31216 1251 9.9105C1217.26 12.221 1183.63 12.8043 1150 16.169C1141.25 17.0445 1132.42 18.5004 1124 21.044C1120.54 22.0894 1117.55 24.3226 1113.96 24.8819C1100.05 27.0501 1085.9 26.6353 1072 27.5139C1066.87 27.8381 1062.05 29.4265 1057 29.8958C1046.5 30.872 1035.54 29.9831 1025 30C1018.96 30.0097 1013.05 30.996 1007 31L1007 29C1010.78 28.7598 1014.24 27.3108 1018 27.054C1038.25 25.6709 1058.77 26.6618 1079 26.6605C1092.29 26.6596 1105.89 23.7654 1119 22C1115.3 20.448 1110.98 21 1107 21L1084 21C1058.69 21 1033.13 19.484 1008 20L1009 18C990.708 18 972.278 17.3345 954 18.0185C935.809 18.6993 917.209 20.0166 899 18.9769C895.366 18.7694 892.522 16.6968 889 16.1574C882.513 15.1639 875.551 16.2267 869 15.9815C861.996 15.7194 855.015 14.608 848 14.2778C841.901 13.9907 835.192 13.4753 829.134 14.25C827.331 14.4807 825.782 15.5808 823.94 15.6157C819.193 15.7059 814.889 14.675 810 15.412C806.973 15.8683 798.494 15.0179 798 18C795.817 17.195 792.503 15.1653 792 18C781.132 12.2347 764.991 15.0008 753 15C724.903 14.9982 697.034 13.457 669 17C670.478 16.0144 670.203 16 672 16C668.437 14.7645 665.539 16.6617 662 17.4722C655.974 18.8526 649.179 19.8725 643 20C644.801 19.4382 646.122 19.1759 648 19C644.444 17.5495 640.754 18.7038 637 19L638 17C604.404 16.9963 570.691 15.093 537 15C538.801 14.4382 540.122 14.1759 542 14C539.668 13.0154 537.543 13.0187 535 13C535 18.1202 522.652 16 519 16C523.084 14.7928 529.134 16.2796 532 13C526.629 13.629 521.413 14 516 14L518 13C511.978 10.0917 502.66 12.3639 496 11.9398C485.483 11.2701 475.484 11.996 465 12C453.389 12.0045 441.568 11.37 430 12.3519C424.35 12.8314 417.666 13.5191 412.019 12.9213C409.157 12.6184 406.895 10.4081 405 13C396.462 9.39716 387.029 11 378 11C379.478 10.0144 379.203 10 381 10C375.477 7.68246 367.944 9.10345 362 8.98611C347.808 8.70595 332.914 9.32196 319 6C314.999 8.29835 309.534 6.27909 305.015 6.15278C300.31 6.02129 295.823 7.19071 291 7z"/>
<path style="fill:#000000; stroke:none;" d="M170 8L171 9L170 8z"/>
<path style="fill:#ffff5c; stroke:none;" d="M341.667 8.33333C341.222 8.77777 342.278 8.72218 342.333 8.66667C342.778 8.22223 341.722 8.27774 341.667 8.33333M1289.67 8.33333C1289.22 8.77805 1290.28 8.72197 1290.33 8.66667C1290.78 8.22243 1289.72 8.27766 1289.67 8.33333z"/>
<path style="fill:#ffe03a; stroke:none;" d="M99 9C101.613 10.0977 104.165 9.99278 107 10C104.387 8.90229 101.835 9.00722 99 9z"/>
<path style="fill:#000000; stroke:none;" d="M196 9C197.506 9.68302 198.315 9.82589 200 10C198.494 9.31696 197.685 9.17411 196 9M215 9L215 11L217 11C216.455 9.36485 216.635 9.54505 215 9M218 10C219.769 10.779 221.036 10.9124 223 11C221.014 9.69868 220.372 9.67015 218 10z"/>
<path style="fill:#ffde3b; stroke:none;" d="M248 9C249.666 11.38 251.123 11.6816 254 12C252.079 10.5446 250.289 9.79668 248 9z"/>
<path style="fill:#000000; stroke:none;" d="M1330 9C1334.72 10.9821 1340.91 10 1346 10C1341.28 8.01781 1335.09 9 1330 9M230 10C234.058 12.1576 238.491 11.997 243 12C239.605 9.63179 234.162 10.317 230 10M376 10L377 11L376 10z"/>
<path style="fill:#ffdf3e; stroke:none;" d="M1004 10C1005.51 10.683 1006.31 10.8259 1008 11C1006.49 10.3169 1005.69 10.1741 1004 10z"/>
<path style="fill:#000000; stroke:none;" d="M1322 11L1323 12L1322 11M1326 11C1332.05 13.6102 1339.52 13 1346 13C1353.75 13 1361.3 13.6693 1369 14L1369 12L1326 11z"/>
<path style="fill:#ffde3b; stroke:none;" d="M81 12C82.769 12.7789 84.0359 12.9124 86 13C84.231 12.2211 82.9641 12.0876 81 12z"/>
<path style="fill:#000000; stroke:none;" d="M371 12C373.443 13.234 375.279 13.2875 378 13C375.668 12.0154 373.543 12.0187 371 12M381 12L380 14L382 14C382 12.1468 382.3 12.6499 381 12z"/>
<path style="fill:#ffff5c; stroke:none;" d="M847 12L847 14L849 14L849 12L847 12z"/>
<path style="fill:#ffde37; stroke:none;" d="M1169 12C1171.05 12.8743 1172.75 12.9528 1175 13C1172.95 12.1257 1171.25 12.0472 1169 12z"/>
<path style="fill:#ffff5c; stroke:none;" d="M72.6667 13.3333C72.2222 13.7778 73.2778 13.7222 73.3333 13.6667C73.7778 13.2222 72.7222 13.2778 72.6667 13.3333z"/>
<path style="fill:#ffdd37; stroke:none;" d="M67 14C70.3488 15.4047 73.5641 15.0153 77 14C73.8286 13.2382 70.3055 13.973 67 14z"/>
<path style="fill:#ffff5c; stroke:none;" d="M88.6667 13.3333C88.2222 13.7777 89.2777 13.7223 89.3333 13.6667C89.7778 13.2222 88.7222 13.2778 88.6667 13.3333z"/>
<path style="fill:#000000; stroke:none;" d="M267 13C268.248 13.6848 268.548 13.7488 270 14C268.752 13.3152 268.452 13.2512 267 13z"/>
<path style="fill:#ffff5c; stroke:none;" d="M532 13L532 15L534 15L534 13L532 13z"/>
<path style="fill:#ffdd37; stroke:none;" d="M800 13C801.769 13.7789 803.036 13.9124 805 14C803.231 13.221 801.964 13.0876 800 13z"/>
<path style="fill:#ffff5c; stroke:none;" d="M1113.67 13.3333C1113.22 13.7778 1114.28 13.7222 1114.33 13.6667C1114.78 13.2224 1113.72 13.2777 1113.67 13.3333z"/>
<path style="fill:#ffde39; stroke:none;" d="M798.667 14.3333C798.222 14.7776 799.278 14.7223 799.333 14.6667C799.778 14.222 798.722 14.2778 798.667 14.3333z"/>
<path style="fill:#ffe23b; stroke:none;" d="M806 14L807 15L806 14z"/>
<path style="fill:#000000; stroke:none;" d="M510 15C511.769 15.7789 513.036 15.9124 515 16C513.231 15.2211 511.964 15.0876 510 15M519 15C523.454 16.9212 528.27 16.5587 533 16C528.783 14.2307 523.541 15 519 15z"/>
<path style="fill:#ffdb35; stroke:none;" d="M864 15C871.201 18.0217 880.351 14.9735 888 16.2238C891.126 16.7347 893.839 18.4747 897 18.8673C915.756 21.196 936.215 18.8619 955 18.0394C972.928 17.2543 991.053 18 1009 18L1008 20C1044.85 19.7193 1082.02 21 1119 21C1103.67 26.7839 1085.11 26.0259 1069 26C1048.33 25.9668 1027.37 26.5182 1007 29L1007 31L1017 31C1015.75 30.3154 1015.45 30.2512 1014 30C1019.48 28.3789 1024.43 29.7168 1030 29.9606C1036.98 30.2661 1044.02 30 1051 30C1046.78 28.2307 1041.54 29 1037 29C1044.61 26.7514 1051.44 29.592 1059 29.331C1071.97 28.8831 1085.01 26.9797 1098 26.0895C1105.92 25.5467 1117.77 27.3285 1123 20C1107.67 20 1092.28 19.3395 1077 19.3395C1066.69 19.3395 1056.36 20.3628 1046 19.9637C1035.06 19.5423 1024.05 17.3665 1013 17.0177C985.683 16.1553 958.217 18.5342 930.999 17.9082C921.357 17.6864 911.741 16.9936 902 17L903 15L864 15z"/>
<path style="fill:#ffde39; stroke:none;" d="M54 17C56.2393 17.8108 57.647 17.5288 60 17C57.8365 16.3244 56.2684 16.613 54 17z"/>
<path style="fill:#000000; stroke:none;" d="M766 16C767.506 16.683 768.315 16.8259 770 17C768.494 16.3169 767.685 16.1741 766 16z"/>
<path style="fill:#ffff5c; stroke:none;" d="M796 16L796 18L798 18C797.455 16.3648 797.635 16.5451 796 16M905.667 16.3333C905.222 16.7777 906.278 16.7222 906.333 16.6667C906.778 16.2219 905.722 16.2779 905.667 16.3333z"/>
<path style="fill:#ffde37; stroke:none;" d="M49 17C50.506 17.683 51.3148 17.8259 53 18C51.494 17.317 50.6852 17.1741 49 17M651 17C652.506 17.683 653.315 17.8259 655 18C653.494 17.3169 652.685 17.1741 651 17z"/>
<path style="fill:#ffde3b; stroke:none;" d="M32 18C33.506 18.683 34.3148 18.8259 36 19C34.494 18.317 33.6852 18.1741 32 18M1458 18C1459.51 18.6831 1460.31 18.8259 1462 19C1460.49 18.3169 1459.69 18.1741 1458 18z"/>
<path style="fill:#ffde38; stroke:none;" d="M1466 18C1467.77 18.7789 1469.04 18.9124 1471 19C1469.23 18.221 1467.96 18.0876 1466 18z"/>
<path style="fill:#ffdd37; stroke:none;" d="M0 19L0 21L29 20C21.1116 16.6899 8.5508 19 0 19z"/>
<path style="fill:#ffff5c; stroke:none;" d="M31.6667 19.3333C31.2222 19.7778 32.2778 19.7222 32.3333 19.6667C32.7778 19.2222 31.7222 19.2778 31.6667 19.3333z"/>
<path style="fill:#000000; stroke:none;" d="M1030 19L1031 20L1030 19z"/>
<path style="fill:#ffdb36; stroke:none;" d="M1491 19C1493.05 19.8742 1494.75 19.9528 1497 20C1494.95 19.1257 1493.25 19.0472 1491 19z"/>
<path style="fill:#000000; stroke:none;" d="M640 20L641 21L640 20z"/>
<path style="fill:#ffff5c; stroke:none;" d="M1488.67 20.3333C1488.22 20.778 1489.28 20.722 1489.33 20.6667C1489.78 20.2224 1488.72 20.2777 1488.67 20.3333z"/>
<path style="fill:#000000; stroke:none;" d="M632 21L633 22L632 21M622.667 22.3333C622.222 22.7777 623.278 22.7222 623.333 22.6667C623.778 22.2221 622.722 22.2778 622.667 22.3333M125 23L126 24L125 23M127 23L128 24L127 23M187 23C188.506 23.683 189.315 23.8259 191 24C189.494 23.317 188.685 23.1741 187 23M116.667 24.3333C116.222 24.7778 117.278 24.7222 117.333 24.6667C117.778 24.2222 116.722 24.2778 116.667 24.3333M193 24C196.757 25.5765 200.971 24.8629 205 25.0394C210.372 25.2746 215.59 26 221 26C236.053 26 250.965 27.6356 266 27C258.902 24.0216 246.772 25.012 239 25C223.664 24.9763 208.382 24 193 24M1105 24L1106 25L1105 24M745 25C751.202 27.6026 760.298 26 767 26C760.798 23.3974 751.702 25 745 25M101.667 26.3333C101.222 26.7778 102.278 26.7222 102.333 26.6667C102.778 26.2222 101.722 26.2778 101.667 26.3333z"/>
<path style="fill:#ffff5c; stroke:none;" d="M231.667 26.3333C231.222 26.7778 232.278 26.7222 232.333 26.6667C232.778 26.2223 231.722 26.2778 231.667 26.3333z"/>
<path style="fill:#000000; stroke:none;" d="M782 26C783.769 26.7789 785.036 26.9124 787 27C785.231 26.221 783.964 26.0876 782 26M95 27L96 28L95 27M90 28L91 29L90 28M1037 28C1042.17 30.1703 1049.35 29.258 1055 30C1050.38 26.5028 1042.61 28 1037 28M86 29L87 30L86 29M1014 29C1017.7 30.5515 1022.02 30 1026 30C1022.3 28.4485 1017.98 29 1014 29z"/>
<path style="fill:#ffff5c; stroke:none;" d="M1052.67 29.3333C1052.22 29.778 1053.28 29.722 1053.33 29.6667C1053.78 29.2224 1052.72 29.2777 1052.67 29.3333z"/>
<path style="fill:#000000; stroke:none;" d="M1056 29C1057.51 29.683 1058.31 29.8259 1060 30C1058.49 29.317 1057.69 29.1741 1056 29M74.6667 31.3333C74.2222 31.7777 75.2778 31.7222 75.3333 31.6667C75.7778 31.2222 74.7222 31.2778 74.6667 31.3333z"/>
<path style="fill:#ffff5c; stroke:none;" d="M735.667 32.3333C735.222 32.7777 736.278 32.7222 736.333 32.6667C736.778 32.2221 735.722 32.2779 735.667 32.3333z"/>
<path style="fill:#000000; stroke:none;" d="M767.667 33.3333C767.222 33.7777 768.278 33.7222 768.333 33.6667C768.778 33.222 767.722 33.2778 767.667 33.3333z"/>
<path style="fill:#ffff5c; stroke:none;" d="M772.667 33.3333C772.222 33.7776 773.278 33.7223 773.333 33.6667C773.778 33.222 772.722 33.2779 772.667 33.3333z"/>
<path style="fill:#000000; stroke:none;" d="M731.667 34.3333C731.222 34.7776 732.278 34.7223 732.333 34.6667C732.778 34.2221 731.722 34.2778 731.667 34.3333z"/>
<path style="fill:#ffdb36; stroke:none;" d="M142 36C143.248 36.6848 143.548 36.7488 145 37C139.73 37.8916 134.395 36.9985 129 38C130.506 38.683 131.315 38.8259 133 39C129.381 39.9674 126.652 38.9122 123 38.8387C118.992 38.758 115.006 39.828 111 40C117.317 42.7251 123.463 40.9674 130 41.1289C145.275 41.506 159.84 40.5094 175 39.1042C203.122 36.4975 231.824 41.5038 260 41C256.837 39.6726 253.414 40.0004 250 40C257.96 37.6473 266.01 41.3618 274 39C263.851 35.826 253.343 38.7027 243 38C244.801 37.4382 246.122 37.1759 248 37C241.685 34.4245 231.978 37.4802 225 37C230.146 35.4789 235.66 36 241 36C235.049 33.5028 226.42 35 220 35C209.714 35 199.27 34.4714 189 35.0432C182.562 35.4017 176.581 37 170 37C173.96 35.8294 177.887 36 182 36C178.041 34.3389 173.26 35 169 35C159.938 35 151.01 35.814 142 36z"/>
<path style="fill:#000000; stroke:none;" d="M170 36C174.538 37.9042 180.296 37.1199 185 36C180.627 34.655 174.681 36 170 36M727 38C727.98 39.7833 727.908 39.5943 730 40C721.434 42.532 710.909 41 702 41C705.48 42.4604 709.261 41.8675 712.996 42.0787C720.012 42.4754 727.002 43.4477 734 44C732.466 45.0226 732.598 44.8046 732 46L737 47C730.611 49.0736 723.623 47.7492 717 49C718.506 49.683 719.315 49.8259 721 50C711.167 52.9064 699.202 50.7811 689 51.0147C665.296 51.5573 641.711 51.302 618 51.0108C596.448 50.7461 574.421 50.1427 552.985 51.3634C543.935 51.8788 534.984 54.1196 525.911 54.4691C514.66 54.9025 501.934 53.6333 491 51C492.856 49.9519 493.944 49.4875 496 49C492.565 47.5588 488.702 48 485 48C476.319 48 467.626 49.1828 459 48.9853C435.351 48.444 411.623 49.053 388 48.2145C376.399 47.8028 363.168 45.0764 352 49C348.751 45.2826 343.318 48.0288 339 48.1296C333.688 48.2536 328.399 47.6691 323.039 48.054C316.815 48.501 312.457 50.1987 306 49L314 47C308.213 44.5661 301.093 45.2307 295 46L297 45C293.303 43.4485 288.983 44 285 44L287 43C285.042 42.4245 284.713 42.7737 283 44C282.466 41.3297 283.785 41.557 281 41C282.479 40.0143 282.203 40 284 40C279.446 36.9064 275.03 39.3113 270 39.8256C263.507 40.4894 256.578 39 250 39C253.163 40.3274 256.586 39.9996 260 40C250.624 42.8308 239.591 40.7463 230 40.0895C211.943 38.8529 193.113 38.0626 175 39.0432C153.102 40.2288 130.756 42.0667 109 45.2716C90.3121 48.0246 71.8121 51.9803 53 53.831C35.5254 55.5502 17.5733 55 0 55L0 70L576 70L747 70L796 70C805.275 70 815.179 71.2149 824 68C826.719 71.1119 832.11 70 836 70L866 70L991 70L1497 70L1497 55C1434.13 55 1371.88 46 1309 46C1310.51 46.683 1311.31 46.8259 1313 47C1306.75 48.8286 1301.28 45.766 1295 48C1292.28 44.8902 1286.9 46 1283 46C1285.05 46.8742 1286.75 46.9528 1289 47C1281.98 49.0546 1273.37 46.881 1266 47.0046C1261.67 47.0773 1258.18 48.9661 1254 49.5301C1248.35 50.2924 1242.63 49.3347 1237 49.7847C1226.46 50.6271 1215.47 50.8445 1205 52.429C1201.34 52.9832 1198.46 54.866 1194.96 55.716C1186.3 57.8178 1175.89 57.9755 1167 58C1172.76 54.9121 1180.51 54.5118 1187 54C1181.15 51.6158 1172.34 54.4188 1166 54.429C1144.68 54.4633 1123.25 59.5646 1102 57C1105.21 55.6116 1108.59 53.9687 1112 55C1118.8 51.2214 1129.81 56.8139 1135 50C1125.01 51.2631 1114.99 51.2188 1105 52.1698C1089.01 53.6911 1074.82 54.9703 1058.91 53.1281C1053.38 52.4875 1047.48 53.4503 1042 52.4151C1038.06 51.6707 1035.01 48.797 1031 48C1031.65 49.2997 1031.15 49 1033 49C1029.04 50.1706 1025.11 50 1021 50C1021.65 51.2997 1021.15 51 1023 51C1013.58 54.2327 1001.88 53 992 53C996.215 54.7687 1001.46 54 1006 54C1013.42 54 1020.63 54.6835 1028 55C1026.78 56.1952 1026.58 56.3164 1025 57C1027.05 57.8742 1028.75 57.9528 1031 58C1025.27 60.6561 1016.35 60.3251 1010 60L1013 62C1002.03 64.6114 990.185 62.3236 979 63.0895C947.087 65.2749 914.905 64.6166 883 64.9961C867.366 65.1821 851.542 64.2464 835.999 65.9506C819.943 67.7111 805.106 69.2762 789 67.4815C783.311 66.8476 777.314 68.4082 773 64C777.689 63.6299 782.375 62.8618 787 62C785.494 61.317 784.685 61.1741 783 61C783.402 59.0568 783.402 58.9432 783 57C784.752 56.436 785.542 56.0811 787 55C779.867 52.9303 773.803 53.773 770 46L766 46C769.048 44.9972 773.512 45.5278 774 42L778 44C779.45 42.3923 780.051 41.9358 782 41C776.657 39.0835 768.85 41.3534 764 44C764 42.2033 763.986 42.4784 763 41L759 42C759.934 40.2772 760.535 38.8939 761 37C754.783 34.7795 747.578 34.0735 741 35.3789C736.051 36.361 732.17 38.2645 727 38M775 35L776 36L775 35M190 36C191.248 36.6848 191.548 36.7488 193 37C191.752 36.3152 191.452 36.2512 190 36M206 36C208.273 38.6012 211.694 37.9974 215 38C212.185 36.7853 209.033 36.5652 206 36M219 36L219 38L222 38L222 36L219 36M225 36C229.379 38.5319 236.913 37 242 37C237.026 34.9128 230.362 36 225 36z"/>
<path style="fill:#ffdb35; stroke:none;" d="M302 36C302.65 37.2997 302.147 37 304 37C300.343 38.0809 296.801 37.9996 293 38L294 40L290 40L292 39C288.077 37.3663 284.914 39.1276 281 40L283 44L287 42L285 43C288.697 44.5515 293.017 44 297 44L295 45C300.133 46.8418 308.384 45.9963 314 46C311.25 47.3293 309.05 47.8465 306 48C311.642 51.8543 317.034 48.8344 323.039 48.1289C328.392 47.5001 333.711 48.8066 339 48.4468C343.748 48.1237 347.862 45.8814 352 49C361.827 46.8011 372.979 46.7335 383 48C376.48 43.5455 363.708 46 356 46C359.587 44.8656 363.246 44.2967 367 44C362.732 42.2086 358.645 43.4158 355 40C357.418 40.7224 359.472 40.9481 362 41C358.197 38.9786 354.21 39.2323 350 39C350 40.7968 350.014 40.5215 351 42C340.624 44.0718 329.565 43 319 43C313.332 43 307.351 44.0282 302 42C313.222 41.2775 324.741 42 336 42L336 40C331.519 40 326.688 40.7943 323 38C317.933 38.3769 312.982 37.8212 308 39C309.186 37.8137 309.584 37.472 311 37C308.11 35.7871 305.126 36.0017 302 36z"/>
<path style="fill:#ffdc37; stroke:none;" d="M740 36C741.926 38.2077 744.125 37.9682 747 38C744.723 36.4641 742.717 36.2708 740 36z"/>
<path style="fill:#000000; stroke:none;" d="M141 37C142.506 37.683 143.315 37.8259 145 38C143.494 37.317 142.685 37.1741 141 37M243 37C245.816 38.6286 248.762 38.0562 252 38C249.11 36.7871 246.126 37.0017 243 37M258 37C259.248 37.6848 259.548 37.7488 261 38C259.752 37.3152 259.452 37.2512 258 37M317 37C319.18 38.1868 320.514 38.2342 323 38C320.948 37.1257 319.253 37.0472 317 37M230 38C232.052 38.8743 233.747 38.9528 236 39C233.948 38.1257 232.253 38.0472 230 38M237 38C238.248 38.6848 238.548 38.7488 240 39C238.752 38.3152 238.452 38.2512 237 38M266 38C267.769 38.7789 269.036 38.9124 271 39C269.231 38.2211 267.964 38.0876 266 38z"/>
<path style="fill:#ffff5c; stroke:none;" d="M283 38C283.545 39.6352 283.365 39.4549 285 40L285 38L283 38z"/>
<path style="fill:#000000; stroke:none;" d="M290 39C291.506 39.6831 292.315 39.8259 294 40C292.276 38.9445 292.079 38.9642 290 39M308.667 38.3333C308.222 38.7777 309.278 38.7223 309.333 38.6667C309.778 38.2222 308.722 38.2778 308.667 38.3333M316 38L317 39L316 38M146 39L147 40L146 39M296 39C298.757 40.3164 301.004 40.5011 304 40C301.437 38.9516 298.758 39.0364 296 39z"/>
<path style="fill:#ffdb35; stroke:none;" d="M1170 50C1172.89 51.2129 1175.87 50.9983 1179 51L1175 52C1178.7 53.5515 1183.02 53 1187 53C1180.5 55.1993 1173.53 55.0173 1167 57C1170.94 58.653 1174.87 57.5632 1179 57.1698C1184.63 56.6341 1190.36 57.0996 1195.91 55.716C1199.78 54.7531 1202.91 52.7975 1207 52.2863C1222.34 50.3679 1237.79 50.82 1253.17 49.8256C1257.63 49.537 1261.48 47.1847 1266 47.0185C1273.74 46.734 1281.29 47.9949 1289 48C1283.48 45.5211 1276.95 46 1271 46C1275.63 44.6329 1280.23 45.237 1285 44.9105C1299.42 43.9227 1314.79 45.6379 1329 43C1324.35 41.0487 1318.01 41.4795 1313 41.6427C1304.32 41.9258 1295.69 42.2688 1287 43C1288.48 42.0145 1288.2 42 1290 42C1288.75 41.3151 1288.45 41.2513 1287 41C1292.44 39.3929 1298.36 40 1304 40C1294.79 36.1354 1281.72 39.9523 1272 39.9992C1246.67 40.1214 1221.18 44.6414 1196 47.169C1187.33 48.0396 1178.74 49.9276 1170 50M208 41C213.022 44.0085 219.348 42.8762 225 43.0147C236.013 43.2845 246.924 44 258 44C251.922 41.4256 244.488 42.2447 238 41.9606C228.12 41.528 217.883 39.9135 208 41z"/>
<path style="fill:#000000; stroke:none;" d="M959 40C962.838 42.622 967.49 42 972 42C980.658 42 989.459 42.5856 998 41C993.534 39.1302 988.704 40.8701 984 40.9853C975.565 41.192 967.374 40.6609 959 40z"/>
<path style="fill:#ffdb35; stroke:none;" d="M7 52C8.24835 52.6848 8.54842 52.7488 10 53C6.48968 53.9654 3.57738 53.4502 0 53C2.43477 55.7863 6.48363 54.9998 10 55C18.6955 55.0006 27.3593 55.2647 36 54.2863C45.223 53.2419 54.6645 53.8768 64 52.7153C87.4178 49.8016 110.578 44.9626 134 42C129.686 40.1902 125.501 41.8609 121 41.7407C113.983 41.5535 107.068 40.4966 100 41.1698C93.9988 41.7412 88.7008 43.6928 82.9105 44.74C79.334 45.3868 75.6124 44.9051 72 45.4282C67.2174 46.1208 62.7504 47.9916 58 48.6991C41.3188 51.1832 23.8428 52 7 52z"/>
<path style="fill:#000000; stroke:none;" d="M303 41L304 42L303 41M700 41L701 42L700 41M783.667 41.3333C783.222 41.7779 784.278 41.7221 784.333 41.6667C784.778 41.2223 783.722 41.2777 783.667 41.3333M296 42C297.769 42.7789 299.036 42.9124 301 43C299.231 42.2211 297.964 42.0876 296 42M947 42L948 43L947 42z"/>
<path style="fill:#ffff5c; stroke:none;" d="M1062.67 42.3333C1062.22 42.7779 1063.28 42.7221 1063.33 42.6667C1063.78 42.2222 1062.72 42.2778 1062.67 42.3333z"/>
<path style="fill:#000000; stroke:none;" d="M1029 46C1038.64 49.6528 1048.18 46.7757 1058 46C1056.49 45.317 1055.69 45.1741 1054 45C1060.38 43.1664 1068.29 45 1075 45L1075 42C1065.65 42 1056.29 42.9023 1047 43.831C1041.07 44.4238 1034.71 44.3117 1029 46M1191 43C1195.74 45.1241 1200.12 44.1022 1205 43C1200.87 41.729 1195.41 42.9995 1191 43z"/>
<path style="fill:#ffdc37; stroke:none;" d="M1187 46C1182.83 44.1893 1180.3 45.9691 1176 46.3627C1172.29 46.7023 1168.74 45.9656 1165 46.615C1159.48 47.5732 1154.47 49.1839 1150 45C1144.27 46.8159 1132.9 45.5112 1129 50C1124.31 48.6532 1119.81 49.9007 1115 50L1115 52C1121.59 51.717 1128.51 51.2045 1135 50C1131.7 52.8739 1127.36 53.5561 1123 53.4059C1119.38 53.2812 1115.58 52.0497 1113 55C1109.43 53.0728 1105.83 55.1786 1102 56C1111.98 60.1904 1125.59 57.5137 1136 56.2855C1150.79 54.5405 1166.12 54 1181 54C1178.95 53.1257 1177.25 53.0472 1175 53L1179 52C1176.11 50.787 1173.13 51.0017 1170 51C1180.27 47.9357 1193.28 47.0071 1204 47C1203.35 45.7003 1203.85 46 1202 46C1207.52 44.4152 1213.26 46.0613 1219 45C1216.56 42.555 1209.6 45.1612 1206 43L1207 42C1204.03 42.6855 1201.06 43.8432 1198 44.054C1193.6 44.3578 1190.44 42.6947 1187 46z"/>
<path style="fill:#000000; stroke:none;" d="M1248.67 42.3333C1248.22 42.7777 1249.28 42.7221 1249.33 42.6667C1249.78 42.2221 1248.72 42.2778 1248.67 42.3333M305 43C306.248 43.6848 306.548 43.7488 308 44C306.752 43.3152 306.452 43.2512 305 43M894 43L895 44L894 43M1233.67 43.3333C1233.22 43.7776 1234.28 43.7223 1234.33 43.6667C1234.78 43.2222 1233.72 43.2778 1233.67 43.3333z"/>
<path style="fill:#ffde37; stroke:none;" d="M259 44C264.327 46.2405 272.473 46.6331 278 45C272.635 43.0549 264.783 44 259 44z"/>
<path style="fill:#000000; stroke:none;" d="M883 44L884 45L883 44M1189 44L1190 45L1189 44M1219 44C1220.77 44.7789 1222.04 44.9124 1224 45C1222.23 44.221 1220.96 44.0876 1219 44z"/>
<path style="fill:#ffde39; stroke:none;" d="M286 45C288.613 46.0977 291.165 45.9928 294 46C291.387 44.9023 288.835 45.0072 286 45z"/>
<path style="fill:#000000; stroke:none;" d="M729 45L730 46L729 45z"/>
<path style="fill:#ffdb35; stroke:none;" d="M1009 47L1017 47C1010.19 49.1525 1003.18 49.7092 996.17 50.7423C992.323 51.3091 988.266 52.2765 985 50L979 53C987.331 58.2819 1000.2 51.0906 1008 57L1003 56C998.965 59.7653 994.104 57.9025 989 59C986.452 54.3125 976.118 58.3598 972 59C972.598 60.1954 972.466 59.9774 974 61C952.802 64.5564 931.156 60.763 910 63C912.837 64.8663 915.649 64.62 919 64.8032C926.419 65.2089 933.712 64.9742 941.089 64.2353C956.293 62.7125 972.728 63 988 63C996.018 63 1005.28 64.281 1013 62C1011.75 61.3153 1011.45 61.2512 1010 61C1016.96 59.6705 1024.15 60.606 1031 59C1028.95 58.1258 1027.25 58.0472 1025 58C1026.04 56.8132 1026.34 56.3968 1027 55C1015.4 53.5334 1003.69 54 992 54C997.192 52.4654 1002.63 53.117 1008 52.9853C1013.03 52.8621 1017.94 52.0033 1023 52C1022.35 50.7003 1022.85 51 1021 51C1024.96 49.8295 1028.89 50 1033 50C1032.35 48.7004 1032.85 49 1031 49C1035.99 49.1763 1039.79 52.7154 1045 53C1043.14 51.7448 1041.58 50.5986 1040 49L1044 49C1039.75 47.1717 1033.58 46.317 1029 47C1028.59 44.5662 1026.43 45.0209 1024 45C1019.79 44.9639 1011.64 43.3876 1009 47z"/>
<path style="fill:#000000; stroke:none;" d="M1150.67 45.3333C1150.22 45.7778 1151.28 45.7222 1151.33 45.6667C1151.78 45.2222 1150.72 45.2778 1150.67 45.3333M1153 45C1154.25 45.6849 1154.55 45.7488 1156 46C1154.75 45.3151 1154.45 45.2513 1153 45M1186 45L1187 46L1186 45M1202 45C1204.61 46.0978 1207.16 45.9928 1210 46C1207.39 44.9023 1204.84 45.0072 1202 45z"/>
<path style="fill:#ffff5c; stroke:none;" d="M1025.67 46.3333C1025.22 46.7777 1026.28 46.7222 1026.33 46.6667C1026.78 46.2222 1025.72 46.2778 1025.67 46.3333z"/>
<path style="fill:#000000; stroke:none;" d="M1152 47C1156.46 48.8713 1161.32 47.3692 1166 47C1161.54 45.1287 1156.68 46.6308 1152 47M1173 46C1174.51 46.6831 1175.31 46.8259 1177 47C1175.49 46.3169 1174.69 46.1741 1173 46M1234 46L1235 47L1234 46M1306.67 46.3333C1306.22 46.7776 1307.28 46.7223 1307.33 46.6667C1307.78 46.2222 1306.72 46.2778 1306.67 46.3333M502 47L503 48L502 47M702.667 48.3333C702.222 48.778 703.278 48.722 703.333 48.6667C703.778 48.2223 702.722 48.2778 702.667 48.3333M705.667 48.3333C705.222 48.7779 706.278 48.7222 706.333 48.6667C706.778 48.2223 705.722 48.2777 705.667 48.3333M1148.67 48.3333C1148.22 48.7777 1149.28 48.7222 1149.33 48.6667C1149.78 48.2221 1148.72 48.2778 1148.67 48.3333z"/>
<path style="fill:#ffdd38; stroke:none;" d="M298 49C299.956 50.3195 300.608 50.2995 303 50C301.231 49.2211 299.964 49.0876 298 49z"/>
<path style="fill:#000000; stroke:none;" d="M1016 49L1017 50L1016 49M1128 49L1129 50L1128 49M1140 50C1142.89 51.2129 1145.87 50.9983 1149 51C1145.76 52.5675 1142.48 53.1407 1139 54C1146.78 57.079 1155.98 51.0062 1164 51C1157.09 48.0726 1147.42 50 1140 50z"/>
<path style="fill:#ffe03a; stroke:none;" d="M346.667 50.3333C346.222 50.7777 347.278 50.7223 347.333 50.6667C347.778 50.2222 346.722 50.2778 346.667 50.3333z"/>
<path style="fill:#ffe745; stroke:none;" d="M1266 50C1267.31 51.618 1267.88 51.6933 1270 52C1268.46 50.7334 1267.95 50.5107 1266 50z"/>
<path style="fill:#ffff5c; stroke:none;" d="M568 51C569.248 51.6848 569.549 51.7488 571 52C569.752 51.3152 569.452 51.2512 568 51M1018.67 52.3333C1018.22 52.7781 1019.28 52.722 1019.33 52.6667C1019.78 52.2225 1018.72 52.2775 1018.67 52.3333z"/>
<path style="fill:#000000; stroke:none;" d="M1164 52L1165 53L1164 52M790 53L791 54L790 53M792 53L793 54L792 53M988 53C989.248 53.6848 989.548 53.7488 991 54C989.752 53.3152 989.451 53.2512 988 53z"/>
<path style="fill:#ffdc37; stroke:none;" d="M411 54C412.248 54.6848 412.548 54.7488 414 55C412.752 54.3152 412.452 54.2512 411 54z"/>
<path style="fill:#ffe745; stroke:none;" d="M536 54C537.506 54.6831 538.315 54.8259 540 55C538.494 54.317 537.685 54.1741 536 54z"/>
<path style="fill:#ffff5c; stroke:none;" d="M1027.33 55.6667C1027.28 55.7224 1027.22 56.7777 1027.67 56.3333C1027.72 56.2779 1027.78 55.2223 1027.33 55.6667z"/>
<path style="fill:#000000; stroke:none;" d="M1119.67 56.3333C1119.22 56.7777 1120.28 56.7222 1120.33 56.6667C1120.78 56.2221 1119.72 56.2777 1119.67 56.3333z"/>
<path style="fill:#ffff5c; stroke:none;" d="M1106 57C1107.14 58.0154 1107.61 58.3087 1109 59C1108.02 57.2167 1108.09 57.4057 1106 57z"/>
<path style="fill:#ffde39; stroke:none;" d="M1106.67 58.3333C1106.22 58.7777 1107.28 58.7222 1107.33 58.6667C1107.78 58.2221 1106.72 58.2777 1106.67 58.3333z"/>
<path style="fill:#ffdc37; stroke:none;" d="M1150 60C1153.3 61.3469 1156.53 60.4386 1160 60C1156.78 57.931 1153.62 59.2568 1150 60M1425 58C1426.77 58.7789 1428.04 58.9124 1430 59C1428.23 58.221 1426.96 58.0876 1425 58z"/>
<path style="fill:#000000; stroke:none;" d="M998.667 60.3333C998.222 60.7777 999.278 60.7223 999.333 60.6667C999.778 60.2221 998.722 60.2779 998.667 60.3333M1002 60L1003 61L1002 60z"/>
<path style="fill:#ffdc36; stroke:none;" d="M1084 61C1087.35 62.4047 1090.56 62.0153 1094 61C1090.84 60.0279 1087.33 60.9316 1084 61z"/>
<path style="fill:#ffdd37; stroke:none;" d="M779 61C780.248 61.6848 780.548 61.7488 782 62C780.752 61.3152 780.451 61.2512 779 61z"/>
<path style="fill:#ffe23b; stroke:none;" d="M1013 62L1014 63L1013 62z"/>
<path style="fill:#ffff5c; stroke:none;" d="M968.667 63.3333C968.222 63.7776 969.278 63.7224 969.333 63.6667C969.778 63.222 968.722 63.2778 968.667 63.3333M820 69C822.046 69.7511 822.596 69.6556 824 68L820 69z"/>
<path style="fill:#ffe745; stroke:none;" d="M854.667 69.3333C854.222 69.7779 855.278 69.7221 855.333 69.6667C855.778 69.2223 854.722 69.2777 854.667 69.3333z"/>
</svg>
