<svg width="55" height="53" viewBox="0 0 55 53" fill="none" xmlns="http://www.w3.org/2000/svg">
<path fill-rule="evenodd" clip-rule="evenodd" d="M21.4726 0.188356C21.4726 0.291952 21.3031 0.376712 21.0959 0.376712C20.8887 0.376712 20.7192 0.461473 20.7192 0.565069C20.7192 0.668664 20.5497 0.753425 20.3425 0.753425C20.1353 0.753425 19.9658 0.838185 19.9658 0.941781C19.9658 1.04538 19.7962 1.13014 19.589 1.13014C19.3818 1.13014 19.2123 1.2149 19.2123 1.31849C19.2123 1.42209 19.0769 1.50685 18.9111 1.50685C18.7456 1.50685 18.3724 1.76113 18.0822 2.07192C17.7919 2.38271 17.4584 2.63699 17.341 2.63699C17.0453 2.63699 15.8219 3.88767 15.8219 4.19017C15.8219 4.32616 15.6524 4.55954 15.4452 4.7089C15.238 4.85827 15.0685 5.1312 15.0685 5.3156C15.0685 5.49981 14.9837 5.65069 14.8801 5.65069C14.7765 5.65069 14.6918 5.78159 14.6918 5.9417C14.6918 6.29769 13.8613 7.15753 13.5176 7.15753C13.3804 7.15753 13.1459 7.32705 12.9966 7.53425C12.8472 7.74144 12.5929 7.91096 12.4315 7.91096C12.2701 7.91096 12.0158 8.08048 11.8664 8.28767C11.7171 8.49486 11.478 8.66438 11.3353 8.66438C11.1927 8.66438 10.8382 8.91866 10.5479 9.22945C10.2577 9.54024 9.92091 9.79452 9.7996 9.79452C9.48373 9.79452 9.0411 10.2812 9.0411 10.6288C9.0411 10.7915 8.95634 10.9247 8.85274 10.9247C8.74914 10.9247 8.66438 11.3485 8.66438 11.8664C8.66438 12.3844 8.57962 12.8082 8.47603 12.8082C8.37243 12.8082 8.28767 13.1473 8.28767 13.5616C8.28767 13.976 8.20291 14.3151 8.09931 14.3151C7.99572 14.3151 7.91096 14.7389 7.91096 15.2568C7.91096 15.7748 7.8262 16.1986 7.7226 16.1986C7.61901 16.1986 7.53425 16.6224 7.53425 17.1404C7.53425 17.6584 7.44949 18.0822 7.34589 18.0822C7.24229 18.0822 7.15753 18.4691 7.15753 18.942C7.15753 19.726 7.07447 19.8829 6.21575 20.7192C5.69777 21.2238 5.27397 21.7352 5.27397 21.8557C5.27397 21.9763 5.01969 22.3125 4.7089 22.6027C4.39812 22.893 4.14384 23.232 4.14384 23.3562C4.14384 23.4803 3.88955 23.8193 3.57877 24.1096C3.26798 24.3998 3.0137 24.7543 3.0137 24.8969C3.0137 25.0397 2.84418 25.2787 2.63699 25.4281C2.42979 25.5774 2.26027 25.8504 2.26027 26.0348C2.26027 26.219 2.17551 26.3699 2.07192 26.3699C1.96832 26.3699 1.88356 26.5394 1.88356 26.7466C1.88356 26.9538 1.7988 27.1233 1.69521 27.1233C1.59161 27.1233 1.50685 27.2928 1.50685 27.5C1.50685 27.7072 1.42209 27.8767 1.31849 27.8767C1.2149 27.8767 1.13014 28.0462 1.13014 28.2534C1.13014 28.4606 1.04538 28.6301 0.941781 28.6301C0.838185 28.6301 0.753425 28.7997 0.753425 29.0068C0.753425 29.214 0.668664 29.3836 0.565068 29.3836C0.461473 29.3836 0.376712 29.6309 0.376712 29.933C0.376712 30.2351 0.270856 30.5318 0.141267 30.5922C-0.047089 30.68 -0.047089 30.7241 0.141267 30.8119C0.270856 30.8723 0.376712 31.0458 0.376712 31.1972C0.376712 31.5203 1.20623 32.3973 1.51175 32.3973C1.92199 32.3973 2.26027 32.9446 2.26027 33.6082C2.26027 33.9781 2.34503 34.2808 2.44863 34.2808C2.55223 34.2808 2.63699 34.5351 2.63699 34.8459C2.63699 35.1567 2.72175 35.411 2.82534 35.411C2.92894 35.411 3.0137 35.5805 3.0137 35.7877C3.0137 35.9949 3.09846 36.1644 3.20205 36.1644C3.30565 36.1644 3.39041 36.293 3.39041 36.4505C3.39041 36.8229 5.74562 39.1781 6.118 39.1781C6.27848 39.1781 6.40411 39.3435 6.40411 39.5548C6.40411 39.762 6.48887 39.9315 6.59247 39.9315C6.69606 39.9315 6.78082 40.2705 6.78082 40.6849C6.78082 41.0993 6.86558 41.4384 6.96918 41.4384C7.07277 41.4384 7.15753 41.6079 7.15753 41.8151C7.15753 42.0223 7.24229 42.1918 7.34589 42.1918C7.44949 42.1918 7.53425 42.3217 7.53425 42.4805C7.53425 42.8555 8.75404 44.0753 9.12906 44.0753C9.28784 44.0753 9.41781 44.1601 9.41781 44.2637C9.41781 44.3673 9.58733 44.4521 9.79452 44.4521C10.0017 44.4521 10.1712 44.5368 10.1712 44.6404C10.1712 44.744 10.5103 44.8288 10.9247 44.8288C11.339 44.8288 11.6781 44.9135 11.6781 45.0171C11.6781 45.1207 12.0171 45.2055 12.4315 45.2055C12.8459 45.2055 13.1849 45.1207 13.1849 45.0171C13.1849 44.9135 13.6087 44.8288 14.1267 44.8288C14.6447 44.8288 15.0685 44.744 15.0685 44.6404C15.0685 44.5368 15.3228 44.4521 15.6336 44.4521C15.9443 44.4521 16.1986 44.3673 16.1986 44.2637C16.1986 44.1601 16.3682 44.0753 16.5753 44.0753C16.7825 44.0753 16.9521 43.9906 16.9521 43.887C16.9521 43.7834 17.1216 43.6986 17.3288 43.6986C17.536 43.6986 17.7055 43.6139 17.7055 43.5103C17.7055 43.4067 17.875 43.3219 18.0822 43.3219C18.2894 43.3219 18.4589 43.2372 18.4589 43.1336C18.4589 43.03 18.6284 42.9452 18.8356 42.9452C19.0428 42.9452 19.2123 42.8604 19.2123 42.7569C19.2123 42.6533 19.4666 42.5685 19.7774 42.5685C20.0882 42.5685 20.3425 42.4837 20.3425 42.3801C20.3425 42.2765 20.5967 42.1918 20.9075 42.1918C21.2183 42.1918 21.4726 42.107 21.4726 42.0034C21.4726 41.8987 21.9749 41.8151 22.6027 41.8151C23.2305 41.8151 23.7329 41.7314 23.7329 41.6267C23.7329 41.5231 24.1567 41.4384 24.6747 41.4384C25.1926 41.4384 25.6164 41.5231 25.6164 41.6267C25.6164 41.7303 25.8707 41.8151 26.1815 41.8151C26.4923 41.8151 26.7466 41.8998 26.7466 42.0034C26.7466 42.107 26.9161 42.1918 27.1233 42.1918C27.3305 42.1918 27.5 42.2765 27.5 42.3801C27.5 42.4837 27.629 42.5685 27.7867 42.5685C28.1357 42.5685 30.137 44.5344 30.137 44.8774C30.137 45.012 30.3065 45.2445 30.5137 45.3938C30.7209 45.5432 30.8904 45.8161 30.8904 46.0005C30.8904 46.1847 30.9752 46.3356 31.0788 46.3356C31.1824 46.3356 31.2671 46.5051 31.2671 46.7123C31.2671 46.9195 31.3519 47.089 31.4555 47.089C31.5591 47.089 31.6438 47.2586 31.6438 47.4658C31.6438 47.6729 31.7286 47.8425 31.8322 47.8425C31.9358 47.8425 32.0205 48.012 32.0205 48.2192C32.0205 48.4264 32.1053 48.5959 32.2089 48.5959C32.3125 48.5959 32.3973 48.7654 32.3973 48.9726C32.3973 49.1798 32.482 49.3493 32.5856 49.3493C32.6892 49.3493 32.774 49.6036 32.774 49.9144C32.774 50.2252 32.8587 50.4795 32.9623 50.4795C33.0659 50.4795 33.1507 50.7337 33.1507 51.0445C33.1507 51.3553 33.2354 51.6096 33.339 51.6096C33.4426 51.6096 33.5274 51.7428 33.5274 51.9055C33.5274 52.0684 33.6485 52.3227 33.7966 52.4706C34.1023 52.7765 35.0342 52.8373 35.0342 52.5514C35.0342 52.4478 35.3733 52.363 35.7877 52.363C36.2021 52.363 36.5411 52.2783 36.5411 52.1747C36.5411 52.0711 36.8801 51.9863 37.2945 51.9863C37.7089 51.9863 38.0479 51.9015 38.0479 51.7979C38.0479 51.6944 38.2175 51.6096 38.4247 51.6096C38.6318 51.6096 38.8014 51.5248 38.8014 51.4212C38.8014 51.3176 39.0557 51.2329 39.3664 51.2329C39.6772 51.2329 39.9315 51.1481 39.9315 51.0445C39.9315 50.9409 40.101 50.8562 40.3082 50.8562C40.5154 50.8562 40.6849 50.7714 40.6849 50.6678C40.6849 50.5642 40.8545 50.4795 41.0616 50.4795C41.2688 50.4795 41.4384 50.3947 41.4384 50.2911C41.4384 50.1875 41.6079 50.1027 41.8151 50.1027C42.0223 50.1027 42.1918 50.018 42.1918 49.9144C42.1918 49.8108 42.3613 49.726 42.5685 49.726C42.7757 49.726 42.9452 49.6413 42.9452 49.5377C42.9452 49.4341 43.1147 49.3493 43.3219 49.3493C43.5291 49.3493 43.6986 49.2646 43.6986 49.161C43.6986 49.0574 43.8341 48.9726 43.9998 48.9726C44.1654 48.9726 44.5385 48.7183 44.8288 48.4075C45.119 48.0967 45.4507 47.8425 45.5656 47.8425C45.8594 47.8425 50.1027 43.5673 50.1027 43.2712C50.1027 43.1377 50.2723 42.9062 50.4795 42.7569C50.6866 42.6075 50.8562 42.3532 50.8562 42.1918C50.8562 42.0304 51.0257 41.7761 51.2329 41.6267C51.4401 41.4773 51.6096 41.2044 51.6096 41.02C51.6096 40.8358 51.6943 40.6849 51.7979 40.6849C51.9015 40.6849 51.9863 40.5154 51.9863 40.3082C51.9863 40.101 52.0711 39.9315 52.1747 39.9315C52.2783 39.9315 52.363 39.762 52.363 39.5548C52.363 39.3476 52.4478 39.1781 52.5514 39.1781C52.655 39.1781 52.7397 39.0086 52.7397 38.8014C52.7397 38.5942 52.8245 38.4247 52.9281 38.4247C53.0317 38.4247 53.1164 38.2551 53.1164 38.0479C53.1164 37.8408 53.2012 37.6712 53.3048 37.6712C53.4084 37.6712 53.4931 37.417 53.4931 37.1062C53.4931 36.7954 53.5779 36.5411 53.6815 36.5411C53.7851 36.5411 53.8699 36.2868 53.8699 35.976C53.8699 35.6652 53.9546 35.411 54.0582 35.411C54.1618 35.411 54.2466 34.9872 54.2466 34.4692C54.2466 33.9512 54.3313 33.5274 54.4349 33.5274C54.5425 33.5274 54.6233 32.9623 54.6233 32.2089C54.6233 31.4555 54.7041 30.8904 54.8116 30.8904C54.9192 30.8904 55 30.3253 55 29.5719C55 28.8185 54.9192 28.2534 54.8116 28.2534C54.708 28.2534 54.6233 28.5077 54.6233 28.8185C54.6233 29.1293 54.5385 29.3836 54.4349 29.3836C54.3313 29.3836 54.2466 29.7226 54.2466 30.137C54.2466 30.5514 54.1618 30.8904 54.0582 30.8904C53.9546 30.8904 53.8699 31.1447 53.8699 31.4555C53.8699 31.8949 53.7862 32.0205 53.4931 32.0205C53.2142 32.0205 53.1164 31.8949 53.1164 31.5363C53.1164 31.2698 52.9953 30.9307 52.8473 30.7829C52.5416 30.477 51.6096 30.4161 51.6096 30.7021C51.6096 30.8057 51.4787 30.8904 51.3186 30.8904C51.1585 30.8904 50.8194 31.0985 50.5652 31.3528C50.3109 31.6071 50.1027 31.9461 50.1027 32.1062C50.1027 32.2663 50.018 32.3973 49.9144 32.3973C49.8108 32.3973 49.726 32.6515 49.726 32.9623C49.726 33.2731 49.6413 33.5274 49.5377 33.5274C49.2333 33.5274 49.3047 35.9583 49.6185 36.2719C49.9227 36.5763 51.2329 36.6417 51.2329 36.3527C51.2329 36.2491 51.3176 36.1644 51.4212 36.1644C51.7542 36.1644 51.622 36.8257 51.2329 37.1062C51.0257 37.2555 50.8562 37.5098 50.8562 37.6712C50.8562 37.8327 50.6866 38.0869 50.4795 38.2363C50.2723 38.3857 50.1027 38.6586 50.1027 38.843C50.1027 39.0272 49.9696 39.1781 49.8068 39.1781C49.4262 39.1781 48.9726 38.7245 48.9726 38.3439C48.9726 38.1811 48.8878 38.0479 48.7842 38.0479C48.6806 38.0479 48.5959 37.8784 48.5959 37.6712C48.5959 37.4356 48.4703 37.2945 48.2608 37.2945C48.0764 37.2945 47.8035 37.125 47.6541 36.9178C47.5047 36.7106 47.2318 36.5411 47.0474 36.5411C46.8632 36.5411 46.7123 36.4563 46.7123 36.3527C46.7123 36.2491 46.2885 36.1644 45.7705 36.1644C45.2526 36.1644 44.8288 36.2491 44.8288 36.3527C44.8288 36.4563 44.6979 36.5411 44.5378 36.5411C44.1609 36.5411 43.3219 37.38 43.3219 37.7569C43.3219 37.917 43.2372 38.0479 43.1336 38.0479C42.8005 38.0479 42.9328 38.7093 43.3219 38.9897C43.5291 39.1391 43.6986 39.3781 43.6986 39.5209C43.6986 39.6635 43.9529 40.018 44.2637 40.3082C44.5745 40.5985 44.8288 40.9716 44.8288 41.1372C44.8288 41.3029 44.9135 41.4384 45.0171 41.4384C45.1207 41.4384 45.2055 41.6079 45.2055 41.8151C45.2055 42.0223 45.2902 42.1918 45.3938 42.1918C45.4974 42.1918 45.5822 42.3613 45.5822 42.5685C45.5822 42.7757 45.667 42.9452 45.7705 42.9452C45.8741 42.9452 45.9589 43.03 45.9589 43.1336C45.9589 43.2372 45.808 43.3219 45.6238 43.3219C45.4394 43.3219 45.1665 43.4914 45.0171 43.6986C44.8678 43.9058 44.6135 44.0753 44.4521 44.0753C44.2906 44.0753 44.0364 44.2449 43.887 44.4521C43.7274 44.6732 43.3993 44.8288 43.0919 44.8288C42.6941 44.8288 42.5685 44.7384 42.5685 44.4521C42.5685 44.2449 42.4837 44.0753 42.3801 44.0753C42.2765 44.0753 42.1918 43.9058 42.1918 43.6986C42.1918 43.4914 42.107 43.3219 42.0034 43.3219C41.8998 43.3219 41.8151 43.0863 41.8151 42.7985C41.8151 42.4911 41.6595 42.163 41.4384 42.0034C41.2312 41.8541 41.0616 41.5811 41.0616 41.3967C41.0616 41.2125 40.9769 41.0616 40.8733 41.0616C40.7697 41.0616 40.6849 40.9108 40.6849 40.7266C40.6849 40.5422 40.5154 40.2692 40.3082 40.1199C40.101 39.9705 39.9315 39.7315 39.9315 39.5887C39.9315 39.4461 39.6772 39.0916 39.3664 38.8014C39.0557 38.5111 38.8014 38.1792 38.8014 38.0641C38.8014 37.7908 35.2914 34.2808 35.018 34.2808C34.903 34.2808 34.5711 34.0265 34.2808 33.7158C33.9906 33.405 33.6361 33.1507 33.4935 33.1507C33.3507 33.1507 33.1117 32.9812 32.9623 32.774C32.813 32.5668 32.54 32.3973 32.3556 32.3973C32.1714 32.3973 32.0205 32.3125 32.0205 32.2089C32.0205 32.1053 31.851 32.0205 31.6438 32.0205C31.4366 32.0205 31.2671 31.9358 31.2671 31.8322C31.2671 31.7286 31.0976 31.6438 30.8904 31.6438C30.6832 31.6438 30.5137 31.5591 30.5137 31.4555C30.5137 31.3519 30.2594 31.2671 29.9486 31.2671C29.6378 31.2671 29.3836 31.1824 29.3836 31.0788C29.3836 30.9752 29.1293 30.8904 28.8185 30.8904C28.5077 30.8904 28.2534 30.8057 28.2534 30.7021C28.2534 30.5985 27.9991 30.5137 27.6884 30.5137C27.3776 30.5137 27.1233 30.4289 27.1233 30.3253C27.1233 30.2217 26.6995 30.137 26.1815 30.137C25.6635 30.137 25.2397 30.0522 25.2397 29.9486C25.2397 29.8388 24.6119 29.7603 23.7329 29.7603C22.8538 29.7603 22.226 29.6817 22.226 29.5719C22.226 29.4644 21.661 29.3836 20.9075 29.3836C20.1541 29.3836 19.589 29.4644 19.589 29.5719C19.589 29.6836 18.8983 29.7603 17.8938 29.7603C16.8893 29.7603 16.1986 29.8369 16.1986 29.9486C16.1986 30.0522 15.8596 30.137 15.4452 30.137C15.0308 30.137 14.6918 30.2217 14.6918 30.3253C14.6918 30.4289 14.3527 30.5137 13.9384 30.5137C13.524 30.5137 13.1849 30.5985 13.1849 30.7021C13.1849 30.8057 13.0154 30.8904 12.8082 30.8904C12.601 30.8904 12.4315 30.9752 12.4315 31.0788C12.4315 31.1824 12.1772 31.2671 11.8664 31.2671C11.5557 31.2671 11.3014 31.3519 11.3014 31.4555C11.3014 31.563 11.8664 31.6438 12.6199 31.6438C13.3733 31.6438 13.9384 31.563 13.9384 31.4555C13.9384 31.3364 15.2568 31.2671 17.5171 31.2671C19.7774 31.2671 21.0959 31.3364 21.0959 31.4555C21.0959 31.563 21.661 31.6438 22.4144 31.6438C23.1678 31.6438 23.7329 31.7246 23.7329 31.8322C23.7329 31.9358 24.0719 32.0205 24.4863 32.0205C24.9007 32.0205 25.2397 32.1053 25.2397 32.2089C25.2397 32.3125 25.5788 32.3973 25.9932 32.3973C26.4075 32.3973 26.7466 32.482 26.7466 32.5856C26.7466 32.6892 27.0009 32.774 27.3116 32.774C27.6224 32.774 27.8767 32.8587 27.8767 32.9623C27.8767 33.0659 28.0462 33.1507 28.2534 33.1507C28.4606 33.1507 28.6301 33.2354 28.6301 33.339C28.6301 33.4426 28.8844 33.5274 29.1952 33.5274C29.506 33.5274 29.7603 33.6122 29.7603 33.7158C29.7603 33.8193 29.9298 33.9041 30.137 33.9041C30.3442 33.9041 30.5137 33.9889 30.5137 34.0925C30.5137 34.1961 30.6646 34.2808 30.8488 34.2808C31.0332 34.2808 31.3061 34.4503 31.4555 34.6575C31.6048 34.8647 31.8439 35.0342 31.9866 35.0342C32.1292 35.0342 32.4837 35.2885 32.774 35.5993C33.0642 35.9101 33.3961 36.1644 33.5114 36.1644C33.8056 36.1644 36.9178 39.3077 36.9178 39.6047C36.9178 39.7386 37.0873 39.9705 37.2945 40.1199C37.5017 40.2692 37.6712 40.5235 37.6712 40.6849C37.6712 40.8464 37.8408 41.1006 38.0479 41.25C38.2551 41.3994 38.4247 41.6723 38.4247 41.8567C38.4247 42.0409 38.5094 42.1918 38.613 42.1918C38.7166 42.1918 38.8014 42.3613 38.8014 42.5685C38.8014 42.7757 38.8861 42.9452 38.9897 42.9452C39.0933 42.9452 39.1781 43.1147 39.1781 43.3219C39.1781 43.5291 39.2628 43.6986 39.3664 43.6986C39.47 43.6986 39.5548 43.9529 39.5548 44.2637C39.5548 44.5745 39.6396 44.8288 39.7431 44.8288C39.8467 44.8288 39.9315 45.0761 39.9315 45.3782C39.9315 45.6803 40.0366 45.9625 40.1653 46.0054C40.4764 46.1092 39.8867 46.7123 39.474 46.7123C39.3113 46.7123 39.1781 46.7971 39.1781 46.9007C39.1781 47.0043 38.9238 47.089 38.613 47.089C38.3022 47.089 38.0479 47.1738 38.0479 47.2774C38.0479 47.5633 37.116 47.5025 36.8103 47.1966C36.6622 47.0487 36.5411 46.7097 36.5411 46.4432C36.5411 46.1768 36.4563 45.9589 36.3527 45.9589C36.2491 45.9589 36.1644 45.7046 36.1644 45.3938C36.1644 45.083 36.0796 44.8288 35.976 44.8288C35.8724 44.8288 35.7877 44.6592 35.7877 44.4521C35.7877 44.2449 35.7029 44.0753 35.5993 44.0753C35.4957 44.0753 35.411 43.9245 35.411 43.7403C35.411 43.5559 35.2414 43.2829 35.0342 43.1336C34.8271 42.9842 34.6575 42.7299 34.6575 42.5685C34.6575 42.4071 34.488 42.1528 34.2808 42.0034C34.0736 41.8541 33.9041 41.6226 33.9041 41.4888C33.9041 41.1715 30.0272 37.2945 29.7098 37.2945C29.5761 37.2945 29.3446 37.125 29.1952 36.9178C29.0458 36.7106 28.7916 36.5411 28.6301 36.5411C28.4687 36.5411 28.2144 36.3716 28.0651 36.1644C27.9157 35.9572 27.6428 35.7877 27.4584 35.7877C27.2742 35.7877 27.1233 35.7029 27.1233 35.5993C27.1233 35.4957 26.9538 35.411 26.7466 35.411C26.5394 35.411 26.3699 35.3262 26.3699 35.2226C26.3699 35.119 26.1156 35.0342 25.8048 35.0342C25.494 35.0342 25.2397 34.9495 25.2397 34.8459C25.2397 34.7423 24.9854 34.6575 24.6747 34.6575C24.3639 34.6575 24.1096 34.5728 24.1096 34.4692C24.1096 34.3656 23.8553 34.2808 23.5445 34.2808C23.2337 34.2808 22.9795 34.1961 22.9795 34.0925C22.9795 33.9889 22.6404 33.9041 22.226 33.9041C21.8116 33.9041 21.4726 33.8193 21.4726 33.7158C21.4726 33.6082 20.9075 33.5274 20.1541 33.5274C19.4007 33.5274 18.8356 33.4466 18.8356 33.339C18.8356 33.224 17.9566 33.1507 16.5753 33.1507C15.1941 33.1507 14.3151 33.224 14.3151 33.339C14.3151 33.4466 13.75 33.5274 12.9966 33.5274C12.2432 33.5274 11.6781 33.6082 11.6781 33.7158C11.6781 33.8193 12.0171 33.9041 12.4315 33.9041C12.8459 33.9041 13.1849 33.9889 13.1849 34.0925C13.1849 34.1961 13.6087 34.2808 14.1267 34.2808C14.6447 34.2808 15.0685 34.3656 15.0685 34.4692C15.0685 34.5728 15.4075 34.6575 15.8219 34.6575C16.2363 34.6575 16.5753 34.7423 16.5753 34.8459C16.5753 34.9495 16.9144 35.0342 17.3288 35.0342C17.8882 35.0342 18.0822 35.1105 18.0822 35.3302C18.0822 35.7108 17.6286 36.1644 17.248 36.1644C17.0852 36.1644 16.9521 36.2491 16.9521 36.3527C16.9521 36.4563 16.7825 36.5411 16.5753 36.5411C16.3682 36.5411 16.1986 36.6259 16.1986 36.7295C16.1986 36.8331 15.9443 36.9178 15.6336 36.9178C15.3228 36.9178 15.0685 37.0026 15.0685 37.1062C15.0685 37.2179 14.3778 37.2945 13.3733 37.2945C12.3688 37.2945 11.6781 37.2179 11.6781 37.1062C11.6781 37.0026 11.3577 36.9178 10.9663 36.9178C10.4705 36.9178 10.172 36.8035 9.98288 36.5411C9.83351 36.3339 9.59693 36.1644 9.45698 36.1644C9.1121 36.1644 8.66438 35.6933 8.66438 35.3302C8.66438 35.1674 8.57962 35.0342 8.47603 35.0342C8.36848 35.0342 8.28767 34.4692 8.28767 33.7158C8.28767 32.9623 8.36848 32.3973 8.47603 32.3973C8.57962 32.3973 8.66438 32.2682 8.66438 32.1106C8.66438 31.7376 10.6417 29.7603 11.0147 29.7603C11.1723 29.7603 11.3014 29.6755 11.3014 29.5719C11.3014 29.4683 11.4709 29.3836 11.6781 29.3836C11.8853 29.3836 12.0548 29.2988 12.0548 29.1952C12.0548 29.0916 12.2243 29.0068 12.4315 29.0068C12.6387 29.0068 12.8082 28.9221 12.8082 28.8185C12.8082 28.7149 13.0625 28.6301 13.3733 28.6301C13.6841 28.6301 13.9384 28.5454 13.9384 28.4418C13.9384 28.3382 14.2774 28.2534 14.6918 28.2534C15.1062 28.2534 15.4452 28.1687 15.4452 28.0651C15.4452 27.9615 15.869 27.8767 16.387 27.8767C16.905 27.8767 17.3288 27.792 17.3288 27.6884C17.3288 27.5688 18.7729 27.5 21.2842 27.5C23.7956 27.5 25.2397 27.5688 25.2397 27.6884C25.2397 27.7931 25.7421 27.8767 26.3699 27.8767C26.9977 27.8767 27.5 27.9603 27.5 28.0651C27.5 28.1687 27.839 28.2534 28.2534 28.2534C28.6678 28.2534 29.0068 28.3382 29.0068 28.4418C29.0068 28.5454 29.3459 28.6301 29.7603 28.6301C30.1747 28.6301 30.5137 28.7149 30.5137 28.8185C30.5137 28.9221 30.6832 29.0068 30.8904 29.0068C31.0976 29.0068 31.2671 29.0916 31.2671 29.1952C31.2671 29.2988 31.5214 29.3836 31.8322 29.3836C32.143 29.3836 32.3973 29.4683 32.3973 29.5719C32.3973 29.6755 32.5668 29.7603 32.774 29.7603C32.9812 29.7603 33.1507 29.845 33.1507 29.9486C33.1507 30.0522 33.3202 30.137 33.5274 30.137C33.7346 30.137 33.9041 30.2217 33.9041 30.3253C33.9041 30.4289 34.0425 30.5137 34.2117 30.5137C34.3808 30.5137 34.6781 30.6968 34.8721 30.9205C35.0663 31.1445 35.288 31.26 35.365 31.1773C35.442 31.0948 35.3993 30.9893 35.2697 30.9432C35.1403 30.8968 35.0342 30.6966 35.0342 30.4981C35.0342 30.2993 34.9495 30.137 34.8459 30.137C34.7423 30.137 34.6575 29.9861 34.6575 29.8019C34.6575 29.6175 34.488 29.3446 34.2808 29.1952C34.0736 29.0458 33.9041 28.814 33.9041 28.6801C33.9041 28.3862 30.7934 25.2397 30.503 25.2397C30.0982 25.2397 29.7603 24.6888 29.7603 24.0288C29.7603 23.6589 29.845 23.3562 29.9486 23.3562C30.0645 23.3562 30.137 22.4144 30.137 20.9075C30.137 19.4007 30.0645 18.4589 29.9486 18.4589C29.845 18.4589 29.7603 18.0351 29.7603 17.5171C29.7603 16.9991 29.6755 16.5753 29.5719 16.5753C29.4683 16.5753 29.3836 16.3211 29.3836 16.0103C29.3836 15.6995 29.2988 15.4452 29.1952 15.4452C29.0916 15.4452 29.0068 15.2943 29.0068 15.1101C29.0068 14.9257 28.8373 14.6528 28.6301 14.5034C28.4229 14.3541 28.2534 14.1175 28.2534 13.9775C28.2534 13.6496 27.7887 13.1849 27.4608 13.1849C27.3209 13.1849 27.0843 13.0154 26.9349 12.8082C26.7856 12.601 26.5126 12.4315 26.3282 12.4315C26.144 12.4315 25.9932 12.3467 25.9932 12.2432C25.9932 12.1396 25.8236 12.0548 25.6164 12.0548C25.4092 12.0548 25.2397 12.1396 25.2397 12.2432C25.2397 12.3467 25.3245 12.4315 25.4281 12.4315C25.5317 12.4315 25.6164 12.601 25.6164 12.8082C25.6164 13.0154 25.7012 13.1849 25.8048 13.1849C25.9084 13.1849 25.9932 13.4392 25.9932 13.75C25.9932 14.0608 26.0779 14.3151 26.1815 14.3151C26.2851 14.3151 26.3699 14.6541 26.3699 15.0685C26.3699 15.4829 26.4546 15.8219 26.5582 15.8219C26.6741 15.8219 26.7466 16.7637 26.7466 18.2705C26.7466 19.7774 26.6741 20.7192 26.5582 20.7192C26.4546 20.7192 26.3699 20.9735 26.3699 21.2842C26.3699 21.595 26.2851 21.8493 26.1815 21.8493C26.0779 21.8493 25.9932 22.0188 25.9932 22.226C25.9932 22.4332 25.9084 22.6027 25.8048 22.6027C25.7012 22.6027 25.6164 22.7321 25.6164 22.8902C25.6164 23.2641 24.0175 24.863 23.6436 24.863C23.4856 24.863 23.3562 24.9478 23.3562 25.0514C23.3562 25.155 23.1866 25.2397 22.9795 25.2397C22.7723 25.2397 22.6027 25.3245 22.6027 25.4281C22.6027 25.5317 22.2637 25.6164 21.8493 25.6164C21.4349 25.6164 21.0959 25.7012 21.0959 25.8048C21.0959 25.9084 20.7568 25.9932 20.3425 25.9932C19.9281 25.9932 19.589 25.9084 19.589 25.8048C19.589 25.7012 19.3749 25.6164 19.1133 25.6164C18.5811 25.6164 16.9521 24.1294 16.9521 23.6436C16.9521 23.4856 16.8673 23.3562 16.7637 23.3562C16.6601 23.3562 16.5753 23.1866 16.5753 22.9795C16.5753 22.7284 16.701 22.6027 16.9521 22.6027C17.1592 22.6027 17.3288 22.6875 17.3288 22.7911C17.3288 22.9028 18.0195 22.9795 19.024 22.9795C20.0285 22.9795 20.7192 22.9028 20.7192 22.7911C20.7192 22.6875 20.9326 22.6027 21.1936 22.6027C21.8561 22.6027 24.1096 20.3492 24.1096 19.6868C24.1096 19.4257 24.1943 19.2123 24.2979 19.2123C24.4015 19.2123 24.4863 18.958 24.4863 18.6473C24.4863 18.3365 24.5711 18.0822 24.6747 18.0822C24.7845 18.0822 24.863 17.4544 24.863 16.5753C24.863 15.1941 24.8316 15.0685 24.4863 15.0685C24.2791 15.0685 24.1096 15.1533 24.1096 15.2568C24.1096 15.3604 23.9401 15.4452 23.7329 15.4452C23.5257 15.4452 23.3562 15.53 23.3562 15.6336C23.3562 15.7372 23.1866 15.8219 22.9795 15.8219C22.7723 15.8219 22.6027 15.9067 22.6027 16.0103C22.6027 16.1139 22.4332 16.1986 22.226 16.1986C22.0188 16.1986 21.8493 16.2834 21.8493 16.387C21.8493 16.4906 21.6984 16.5753 21.5142 16.5753C21.3298 16.5753 21.0569 16.7449 20.9075 16.9521C20.7582 17.1592 20.4852 17.3288 20.3008 17.3288C20.1166 17.3288 19.9658 17.4135 19.9658 17.5171C19.9658 17.6207 19.8303 17.7055 19.6646 17.7055C19.499 17.7055 19.1259 17.9598 18.8356 18.2705C18.5454 18.5813 18.1722 18.8356 18.0067 18.8356C17.8409 18.8356 17.7055 18.9204 17.7055 19.024C17.7055 19.1276 17.536 19.2123 17.3288 19.2123C17.0777 19.2123 16.9521 19.0867 16.9521 18.8356C16.9521 18.6284 17.0368 18.4589 17.1404 18.4589C17.244 18.4589 17.3288 18.2894 17.3288 18.0822C17.3288 17.875 17.4135 17.7055 17.5171 17.7055C17.6207 17.7055 17.7055 17.536 17.7055 17.3288C17.7055 17.1216 17.7902 16.9521 17.8938 16.9521C17.9974 16.9521 18.0822 16.7825 18.0822 16.5753C18.0822 16.3682 18.167 16.1986 18.2705 16.1986C18.3741 16.1986 18.4589 16.0291 18.4589 15.8219C18.4589 15.6147 18.5437 15.4452 18.6473 15.4452C18.7509 15.4452 18.8356 15.3068 18.8356 15.1376C18.8356 14.9685 19.0187 14.6712 19.2425 14.4772C19.4664 14.283 19.5819 14.0614 19.4992 13.9843C19.4167 13.9073 19.3112 13.9502 19.2651 14.0796C19.2187 14.2092 19.0562 14.3151 18.9036 14.3151C18.7512 14.3151 18.1272 14.8236 17.5171 15.4452C16.907 16.0668 16.276 16.5753 16.1148 16.5753C15.9538 16.5753 15.8219 16.7066 15.8219 16.8669C15.8219 17.0274 15.2286 17.7437 14.5034 18.4589C13.7783 19.1741 13.1849 19.8718 13.1849 20.0093C13.1849 20.1468 13.0154 20.3815 12.8082 20.5308C12.601 20.6802 12.4315 20.9192 12.4315 21.062C12.4315 21.2046 12.1772 21.5591 11.8664 21.8493C11.5557 22.1396 11.3014 22.4941 11.3014 22.6366C11.3014 22.7794 11.1318 23.0184 10.9247 23.1678C10.7175 23.3172 10.5479 23.5901 10.5479 23.7745C10.5479 23.9587 10.4632 24.1096 10.3596 24.1096C10.256 24.1096 10.1712 24.2791 10.1712 24.4863C10.1712 24.6935 10.0865 24.863 9.98288 24.863C9.87928 24.863 9.79452 25.0325 9.79452 25.2397C9.79452 25.4469 9.70976 25.6164 9.60616 25.6164C9.50257 25.6164 9.41781 25.786 9.41781 25.9932C9.41781 26.2003 9.33305 26.3699 9.22945 26.3699C9.12586 26.3699 9.0411 26.5394 9.0411 26.7466C9.0411 27.0954 8.91546 27.1233 7.34589 27.1233C5.77632 27.1233 5.65068 27.0954 5.65068 26.7466C5.65068 26.5394 5.73545 26.3699 5.83904 26.3699C5.94264 26.3699 6.0274 26.2003 6.0274 25.9932C6.0274 25.786 6.11216 25.6164 6.21575 25.6164C6.31935 25.6164 6.40411 25.4469 6.40411 25.2397C6.40411 25.0325 6.48887 24.863 6.59247 24.863C6.69606 24.863 6.78082 24.7276 6.78082 24.5618C6.78082 24.3963 7.0351 24.0231 7.34589 23.7329C7.65668 23.4426 7.91096 23.1036 7.91096 22.9795C7.91096 22.8553 8.16524 22.5163 8.47603 22.226C8.78681 21.9358 9.0411 21.5967 9.0411 21.4726C9.0411 21.3485 9.29538 21.0094 9.60616 20.7192C9.91695 20.4289 10.1712 20.0927 10.1712 19.9722C10.1712 19.8516 10.595 19.3402 11.113 18.8356C11.631 18.331 12.0548 17.8213 12.0548 17.703C12.0548 17.5846 12.3938 17.1619 12.8082 16.7637C13.2226 16.3655 13.5616 15.9428 13.5616 15.8244C13.5616 15.7061 13.9854 15.1964 14.5034 14.6918C15.0214 14.1872 15.4452 13.7266 15.4452 13.6681C15.4452 13.4004 14.7466 13.6008 14.5034 13.9384C14.3541 14.1455 14.0811 14.3151 13.8967 14.3151C13.7125 14.3151 13.5616 14.3998 13.5616 14.5034C13.5616 14.607 13.4108 14.6918 13.2266 14.6918C13.0422 14.6918 12.7692 14.8613 12.6199 15.0685C12.4705 15.2757 12.1976 15.4452 12.0132 15.4452C11.8037 15.4452 11.6781 15.3041 11.6781 15.0685C11.6781 14.8613 11.7628 14.6918 11.8664 14.6918C11.97 14.6918 12.0548 14.4375 12.0548 14.1267C12.0548 13.8159 12.1396 13.5616 12.2432 13.5616C12.3467 13.5616 12.4315 13.3437 12.4315 13.0774C12.4315 12.5323 12.821 12.0548 13.2657 12.0548C13.4285 12.0548 13.5616 11.97 13.5616 11.8664C13.5616 11.7628 13.7125 11.6781 13.8967 11.6781C14.0811 11.6781 14.3541 11.5086 14.5034 11.3014C14.6528 11.0942 14.9257 10.9247 15.1101 10.9247C15.2943 10.9247 15.4452 10.8399 15.4452 10.7363C15.4452 10.6327 15.6147 10.5479 15.8219 10.5479C16.0291 10.5479 16.1986 10.4632 16.1986 10.3596C16.1986 10.256 16.3682 10.1712 16.5753 10.1712C16.7825 10.1712 16.9521 10.0865 16.9521 9.98288C16.9521 9.87928 17.1216 9.79452 17.3288 9.79452C17.536 9.79452 17.7055 9.70976 17.7055 9.60616C17.7055 9.50257 17.875 9.41781 18.0822 9.41781C18.2894 9.41781 18.4589 9.33305 18.4589 9.22945C18.4589 9.12586 18.6284 9.0411 18.8356 9.0411C19.0428 9.0411 19.2123 8.95634 19.2123 8.85274C19.2123 8.74914 19.4666 8.66438 19.7774 8.66438C20.0882 8.66438 20.3425 8.57962 20.3425 8.47603C20.3425 8.37243 20.5967 8.28767 20.9075 8.28767C21.2183 8.28767 21.4726 8.20291 21.4726 8.09932C21.4726 7.99572 21.8116 7.91096 22.226 7.91096C22.6404 7.91096 22.9795 7.8262 22.9795 7.7226C22.9795 7.61901 23.2337 7.53425 23.5445 7.53425C23.8553 7.53425 24.1096 7.44949 24.1096 7.34589C24.1096 7.24229 24.5334 7.15753 25.0514 7.15753C25.5693 7.15753 25.9932 7.07277 25.9932 6.96918C25.9932 6.86163 26.5582 6.78082 27.3116 6.78082C28.5045 6.78082 28.6301 6.81661 28.6301 7.15753C28.6301 7.36473 28.5454 7.53425 28.4418 7.53425C28.3382 7.53425 28.2534 7.87329 28.2534 8.28767C28.2534 8.70205 28.1687 9.0411 28.0651 9.0411C27.9615 9.0411 27.8767 9.21062 27.8767 9.41781C27.8767 9.625 27.9246 9.79452 27.9831 9.79452C28.0417 9.79452 28.5022 9.37072 29.0068 8.85274C29.5115 8.33476 30.0381 7.91096 30.1773 7.91096C30.3167 7.91096 30.5527 7.74144 30.7021 7.53425C30.8514 7.32705 31.1057 7.15753 31.2671 7.15753C31.4285 7.15753 31.6828 6.98801 31.8322 6.78082C31.9816 6.57363 32.2545 6.40411 32.4389 6.40411C32.6231 6.40411 32.774 6.31935 32.774 6.21575C32.774 6.11216 32.9435 6.0274 33.1507 6.0274C33.3579 6.0274 33.5274 5.94264 33.5274 5.83904C33.5274 5.73545 33.6969 5.65069 33.9041 5.65069C34.1113 5.65069 34.2808 5.56592 34.2808 5.46233C34.2808 5.35873 34.5351 5.27397 34.8459 5.27397C35.1567 5.27397 35.411 5.18921 35.411 5.08562C35.411 4.98202 35.5805 4.89726 35.7877 4.89726C35.9949 4.89726 36.1644 4.8125 36.1644 4.7089C36.1644 4.41997 37.4746 4.48533 37.7788 4.78971C37.9268 4.93757 38.0479 5.27661 38.0479 5.54313C38.0479 5.80947 38.1327 6.0274 38.2363 6.0274C38.341 6.0274 38.4247 6.52974 38.4247 7.15753C38.4247 7.78533 38.5083 8.28767 38.613 8.28767C38.7206 8.28767 38.8014 8.85274 38.8014 9.60616C38.8014 10.3596 38.7206 10.9247 38.613 10.9247C38.5055 10.9247 38.4247 11.4897 38.4247 12.2432C38.4247 12.9966 38.3439 13.5616 38.2363 13.5616C38.1327 13.5616 38.0479 13.9854 38.0479 14.5034C38.0479 15.3196 37.9977 15.4452 37.6712 15.4452C37.3224 15.4452 37.2945 15.3196 37.2945 13.75C37.2945 12.7455 37.2179 12.0548 37.1062 12.0548C37.0026 12.0548 36.9178 11.631 36.9178 11.113C36.9178 10.595 36.833 10.1712 36.7295 10.1712C36.6259 10.1712 36.5411 9.83219 36.5411 9.41781C36.5411 9.00343 36.4563 8.66438 36.3527 8.66438C36.2491 8.66438 36.1644 8.49486 36.1644 8.28767C36.1644 8.08048 36.0796 7.91096 35.976 7.91096C35.8724 7.91096 35.7877 7.99572 35.7877 8.09932C35.7877 8.20291 35.6564 8.28767 35.4961 8.28767C35.3356 8.28767 34.6193 8.88099 33.9041 9.60616L32.6039 10.9247H30.8053C29.8162 10.9247 29.0068 10.9712 29.0068 11.0279C29.0068 11.0848 29.6002 11.7163 30.3253 12.4315C31.0505 13.1467 31.6438 13.8272 31.6438 13.944C31.6438 14.0608 31.9829 14.482 32.3973 14.8801C32.8116 15.2783 33.1507 15.7191 33.1507 15.8598C33.1507 16.0005 33.3202 16.2376 33.5274 16.387C33.7346 16.5364 33.9041 16.8093 33.9041 16.9937C33.9041 17.1779 33.9889 17.3288 34.0925 17.3288C34.1961 17.3288 34.2808 17.4983 34.2808 17.7055C34.2808 17.9127 34.3656 18.0822 34.4692 18.0822C34.5728 18.0822 34.6575 18.2331 34.6575 18.4173C34.6575 18.6017 34.8271 18.8746 35.0342 19.024C35.2554 19.1835 35.411 19.5116 35.411 19.819C35.411 20.1068 35.4957 20.3425 35.5993 20.3425C35.7029 20.3425 35.7877 20.512 35.7877 20.7192C35.7877 20.9264 35.8724 21.0959 35.976 21.0959C36.0796 21.0959 36.1644 21.2654 36.1644 21.4726C36.1644 21.6798 36.2491 21.8493 36.3527 21.8493C36.4563 21.8493 36.5411 22.1036 36.5411 22.4144C36.5411 22.7252 36.6259 22.9795 36.7295 22.9795C36.833 22.9795 36.9178 23.149 36.9178 23.3562C36.9178 23.5634 37.0026 23.7329 37.1062 23.7329C37.2098 23.7329 37.2945 23.9872 37.2945 24.2979C37.2945 24.6087 37.3793 24.863 37.4829 24.863C37.5865 24.863 37.6712 25.2021 37.6712 25.6164C37.6712 26.0308 37.756 26.3699 37.8596 26.3699C37.9632 26.3699 38.0479 26.7089 38.0479 27.1233C38.0479 27.5377 38.1327 27.8767 38.2363 27.8767C38.3399 27.8767 38.4247 27.7072 38.4247 27.5C38.4247 27.2928 38.5094 27.1233 38.613 27.1233C38.7166 27.1233 38.8014 26.869 38.8014 26.5582C38.8014 26.2474 38.8861 25.9932 38.9897 25.9932C39.0933 25.9932 39.1781 25.5693 39.1781 25.0514C39.1781 24.5334 39.2628 24.1096 39.3664 24.1096C39.474 24.1096 39.5548 23.5445 39.5548 22.7911C39.5548 22.0377 39.6356 21.4726 39.7431 21.4726C39.8467 21.4726 39.9315 21.3031 39.9315 21.0959C39.9315 20.8887 40.0163 20.7192 40.1199 20.7192C40.2235 20.7192 40.3082 20.4649 40.3082 20.1541C40.3082 19.8433 40.393 19.589 40.4966 19.589C40.6002 19.589 40.6849 19.4195 40.6849 19.2123C40.6849 19.0051 40.7697 18.8356 40.8733 18.8356C40.9769 18.8356 41.0616 18.5813 41.0616 18.2705C41.0616 17.9598 41.1464 17.7055 41.25 17.7055C41.3536 17.7055 41.4384 17.4512 41.4384 17.1404C41.4384 16.8296 41.5231 16.5753 41.6267 16.5753C41.7303 16.5753 41.8151 16.3211 41.8151 16.0103C41.8151 15.6995 41.8998 15.4452 42.0034 15.4452C42.1081 15.4452 42.1918 14.9429 42.1918 14.3151C42.1918 13.6873 42.2754 13.1849 42.3801 13.1849C42.4952 13.1849 42.5685 12.3059 42.5685 10.9247V8.66438H43.3219C43.7363 8.66438 44.0753 8.74914 44.0753 8.85274C44.0753 8.95634 44.3296 9.0411 44.6404 9.0411C44.9512 9.0411 45.2055 9.12586 45.2055 9.22945C45.2055 9.33305 45.5445 9.41781 45.9589 9.41781C46.3733 9.41781 46.7123 9.50257 46.7123 9.60616C46.7123 9.70976 46.9666 9.79452 47.2774 9.79452C47.5882 9.79452 47.8425 9.87928 47.8425 9.98288C47.8425 10.0865 48.012 10.1712 48.2192 10.1712C48.4264 10.1712 48.5959 10.1251 48.5959 10.0686C48.5959 9.87627 47.6722 9.0411 47.4595 9.0411C47.3431 9.0411 46.9222 8.70205 46.524 8.28767C46.1258 7.87329 45.685 7.53425 45.5443 7.53425C45.4036 7.53425 45.1665 7.36473 45.0171 7.15753C44.8678 6.95034 44.6135 6.78082 44.4521 6.78082C44.2906 6.78082 44.0364 6.6113 43.887 6.40411C43.7376 6.19692 43.5031 6.0274 43.366 6.0274C42.9429 6.0274 42.1918 5.12913 42.1918 4.6232C42.1918 4.3595 42.107 4.14384 42.0034 4.14384C41.8998 4.14384 41.8151 3.88955 41.8151 3.57877C41.8151 3.26798 41.7303 3.0137 41.6267 3.0137C41.5231 3.0137 41.4384 2.84418 41.4384 2.63699C41.4384 2.42979 41.3536 2.26027 41.25 2.26027C41.1464 2.26027 41.0616 2.13031 41.0616 1.97152C41.0616 1.81255 40.7678 1.38875 40.4086 1.02974C39.7968 0.417963 39.6782 0.376712 38.525 0.376712C37.8302 0.376712 37.2945 0.458647 37.2945 0.565069C37.2945 0.668664 36.8707 0.753425 36.3527 0.753425C35.8348 0.753425 35.411 0.838185 35.411 0.941781C35.411 1.04538 35.1567 1.13014 34.8459 1.13014C34.5351 1.13014 34.2808 1.2149 34.2808 1.31849C34.2808 1.42209 34.1113 1.50685 33.9041 1.50685C33.6969 1.50685 33.5274 1.59161 33.5274 1.69521C33.5274 1.7988 33.3765 1.88356 33.1923 1.88356C33.0079 1.88356 32.735 2.05308 32.5856 2.26027C32.346 2.59272 32.098 2.63699 30.4721 2.63699C29.3696 2.63699 28.6301 2.71271 28.6301 2.82534C28.6301 2.93515 28.0023 3.0137 27.1233 3.0137C25.8948 3.0137 25.6164 2.96039 25.6164 2.72495C25.6164 2.37235 24.4066 1.13014 24.0633 1.13014C23.9273 1.13014 23.6939 0.960616 23.5445 0.753425C23.3952 0.546233 23.1222 0.376712 22.9378 0.376712C22.7536 0.376712 22.6027 0.291952 22.6027 0.188356C22.6027 0.0847603 22.3485 0 22.0377 0C21.7269 0 21.4726 0.0847603 21.4726 0.188356ZM21.4726 9.22945C21.4726 9.33305 21.1336 9.41781 20.7192 9.41781C20.3048 9.41781 19.9658 9.50257 19.9658 9.60616C19.9658 9.70976 19.7115 9.79452 19.4007 9.79452C19.0899 9.79452 18.8356 9.87928 18.8356 9.98288C18.8356 10.0865 18.7047 10.1712 18.5446 10.1712C18.1191 10.1712 17.3288 11.0315 17.3288 11.4946C17.3288 12.2234 17.765 12.4315 19.2931 12.4315C20.1183 12.4315 20.7192 12.3522 20.7192 12.2432C20.7192 12.1396 21.0582 12.0548 21.4726 12.0548C21.887 12.0548 22.226 11.97 22.226 11.8664C22.226 11.7628 22.3955 11.6781 22.6027 11.6781C22.8099 11.6781 22.9795 11.5933 22.9795 11.4897C22.9795 11.3861 23.1104 11.3014 23.2705 11.3014C23.7282 11.3014 24.4863 10.4259 24.4863 9.89717C24.4863 9.49014 24.4012 9.41781 23.9212 9.41781C23.6104 9.41781 23.3562 9.33305 23.3562 9.22945C23.3562 9.12586 22.9324 9.0411 22.4144 9.0411C21.8964 9.0411 21.4726 9.12586 21.4726 9.22945ZM47.8425 12.2432C47.8425 12.3467 47.7093 12.4315 47.5466 12.4315C47.1659 12.4315 46.7123 12.8851 46.7123 13.2657C46.7123 13.4285 46.6276 13.5616 46.524 13.5616C46.4204 13.5616 46.3356 13.7312 46.3356 13.9384C46.3356 14.1455 46.2509 14.3151 46.1473 14.3151C46.0425 14.3151 45.9589 14.8174 45.9589 15.4452C45.9589 16.073 46.0425 16.5753 46.1473 16.5753C46.2509 16.5753 46.3356 16.7449 46.3356 16.9521C46.3356 17.1592 46.4204 17.3288 46.524 17.3288C46.6276 17.3288 46.7123 17.4597 46.7123 17.6198C46.7123 17.7799 46.9205 18.1189 47.1747 18.3732C47.5641 18.7627 47.8174 18.8356 48.782 18.8356C49.8373 18.8356 49.978 18.7846 50.5798 18.1826C50.9812 17.7812 51.2329 17.3459 51.2329 17.0524C51.2329 16.7901 51.3176 16.5753 51.4212 16.5753C51.5248 16.5753 51.6096 16.1515 51.6096 15.6336C51.6096 15.1156 51.5248 14.6918 51.4212 14.6918C51.3176 14.6918 51.2329 14.4776 51.2329 14.216C51.2329 13.9035 50.9434 13.4507 50.3902 12.8975C49.6405 12.1477 49.4537 12.0548 48.695 12.0548C48.2261 12.0548 47.8425 12.1396 47.8425 12.2432ZM52.7868 19.3112C52.5536 19.5602 52.363 19.9789 52.363 20.2415C52.363 20.5043 52.2783 20.7192 52.1747 20.7192C52.0711 20.7192 51.9863 21.143 51.9863 21.661C51.9863 22.1789 52.0711 22.6027 52.1747 22.6027C52.2783 22.6027 52.363 22.857 52.363 23.1678C52.363 23.4786 52.4478 23.7329 52.5514 23.7329C52.655 23.7329 52.7397 23.866 52.7397 24.0288C52.7397 24.4095 53.1933 24.863 53.574 24.863C53.7367 24.863 53.8699 24.9478 53.8699 25.0514C53.8699 25.155 54.0394 25.2397 54.2466 25.2397C54.573 25.2397 54.6233 25.1141 54.6233 24.2979C54.6233 23.78 54.5385 23.3562 54.4349 23.3562C54.3302 23.3562 54.2466 22.8538 54.2466 22.226C54.2466 21.5982 54.1629 21.0959 54.0582 21.0959C53.9546 21.0959 53.8699 20.7084 53.8699 20.2349C53.8699 19.7397 53.7555 19.2594 53.6007 19.1048C53.2683 18.7721 53.299 18.7644 52.7868 19.3112ZM31.5026 20.6242C31.2227 20.942 31.185 22.226 31.4555 22.226C31.5591 22.226 31.6438 22.4402 31.6438 22.7018C31.6438 23.2339 33.1309 24.863 33.6167 24.863C33.7747 24.863 33.9041 24.9478 33.9041 25.0514C33.9041 25.3311 34.4566 25.2793 34.7651 24.9706C34.9131 24.8227 35.0342 24.5684 35.0342 24.4055C35.0342 24.2428 35.119 24.1096 35.2226 24.1096C35.3262 24.1096 35.411 23.9401 35.411 23.7329C35.411 23.5257 35.3262 23.3562 35.2226 23.3562C35.119 23.3562 35.0342 23.1205 35.0342 22.8327C35.0342 22.5253 34.8787 22.1972 34.6575 22.0377C34.4503 21.8883 34.2808 21.6517 34.2808 21.5118C34.2808 21.1669 33.8097 20.7192 33.4466 20.7192C33.2839 20.7192 33.1507 20.6344 33.1507 20.5308C33.1507 20.2426 31.7697 20.3208 31.5026 20.6242ZM42.2389 21.9482C42.0057 22.1972 41.8151 22.5312 41.8151 22.6901C41.8151 22.8493 41.7303 22.9795 41.6267 22.9795C41.5137 22.9795 41.4384 23.7329 41.4384 24.863C41.4384 25.9932 41.5137 26.7466 41.6267 26.7466C41.7303 26.7466 41.8151 26.9161 41.8151 27.1233C41.8151 27.3305 41.8998 27.5 42.0034 27.5C42.107 27.5 42.1918 27.6332 42.1918 27.7959C42.1918 27.9588 42.3129 28.2131 42.4609 28.361C42.7666 28.6669 43.6986 28.7277 43.6986 28.4418C43.6986 28.3382 43.8681 28.2534 44.0753 28.2534C44.3264 28.2534 44.4521 28.1278 44.4521 27.8767C44.4521 27.6695 44.5368 27.5 44.6404 27.5C44.744 27.5 44.8288 27.0762 44.8288 26.5582C44.8288 26.0402 44.9135 25.6164 45.0171 25.6164C45.1207 25.6164 45.2055 25.3622 45.2055 25.0514C45.2055 24.7406 45.1207 24.4863 45.0171 24.4863C44.9135 24.4863 44.8288 24.1473 44.8288 23.7329C44.8288 23.3185 44.744 22.9795 44.6404 22.9795C44.5368 22.9795 44.4521 22.8485 44.4521 22.6884C44.4521 22.2437 43.5815 21.4711 43.095 21.4841C42.8572 21.4905 42.4721 21.6994 42.2389 21.9482ZM47.8425 23.7329C47.8425 23.9401 47.7577 24.1096 47.6541 24.1096C47.5466 24.1096 47.4658 24.6747 47.4658 25.4281C47.4658 26.1815 47.5466 26.7466 47.6541 26.7466C47.7577 26.7466 47.8425 26.8765 47.8425 27.0353C47.8425 27.5718 49.0973 28.6301 49.7332 28.6301C50.68 28.6301 50.8562 28.2926 50.8562 26.4774C50.8562 25.5268 50.7787 24.863 50.6678 24.863C50.5642 24.863 50.4795 24.7321 50.4795 24.572C50.4795 24.4119 50.2713 24.0729 50.017 23.8186C49.6618 23.4632 49.3565 23.3562 48.6985 23.3562C47.9681 23.3562 47.8425 23.4114 47.8425 23.7329ZM38.0479 30.7021C38.0479 30.8057 37.8784 30.8904 37.6712 30.8904C37.4202 30.8904 37.2945 31.016 37.2945 31.2671C37.2945 31.4743 37.2098 31.6438 37.1062 31.6438C37.0026 31.6438 36.9178 31.8586 36.9178 32.1209C36.9178 32.5986 38.0195 33.9041 38.4224 33.9041C38.7319 33.9041 40.6849 35.9331 40.6849 36.2544C40.6849 36.7099 41.5866 36.5984 42.1061 36.0787C42.5154 35.6696 42.5685 35.453 42.5685 34.1951C42.5685 33.3733 42.489 32.774 42.3801 32.774C42.2765 32.774 42.1918 32.644 42.1918 32.4852C42.1918 32.3263 41.8979 31.9025 41.5387 31.5434C41.1797 31.1842 40.7559 30.8904 40.597 30.8904C40.4382 30.8904 40.3082 30.8057 40.3082 30.7021C40.3082 30.5973 39.8059 30.5137 39.1781 30.5137C38.5503 30.5137 38.0479 30.5973 38.0479 30.7021ZM19.589 45.0171C19.589 45.1207 19.3743 45.2055 19.1119 45.2055C18.5813 45.2055 17.3288 46.3256 17.3288 46.8003C17.3288 46.9591 17.244 47.089 17.1404 47.089C17.0368 47.089 16.9521 47.2586 16.9521 47.4658C16.9521 47.7014 17.0777 47.8425 17.2871 47.8425C17.4715 47.8425 17.7445 48.012 17.8938 48.2192C18.0432 48.4264 18.3161 48.5959 18.5005 48.5959C18.6847 48.5959 18.8356 48.6807 18.8356 48.7842C18.8356 48.8878 18.9865 48.9726 19.1707 48.9726C19.3551 48.9726 19.628 49.1421 19.7774 49.3493C19.9268 49.5565 20.1997 49.726 20.3841 49.726C20.5683 49.726 20.7192 49.8108 20.7192 49.9144C20.7192 50.018 20.9735 50.1027 21.2842 50.1027C21.595 50.1027 21.8493 50.1875 21.8493 50.2911C21.8493 50.3947 22.1884 50.4795 22.6027 50.4795H23.3562V49.161C23.3562 48.4075 23.2754 47.8425 23.1678 47.8425C23.0642 47.8425 22.9795 47.6068 22.9795 47.319C22.9795 47.0116 22.8239 46.6835 22.6027 46.524C22.3955 46.3746 22.226 46.138 22.226 45.9981C22.226 45.5912 21.7284 45.2055 21.2034 45.2055C20.9371 45.2055 20.7192 45.1207 20.7192 45.0171C20.7192 44.9135 20.4649 44.8288 20.1541 44.8288C19.8433 44.8288 19.589 44.9135 19.589 45.0171ZM25.6164 47.2774C25.6164 48.2819 25.6931 48.9726 25.8048 48.9726C25.9084 48.9726 25.9932 49.2269 25.9932 49.5377C25.9932 49.8485 26.0779 50.1027 26.1815 50.1027C26.2851 50.1027 26.3699 50.2337 26.3699 50.3938C26.3699 50.7707 27.2088 51.6096 27.5857 51.6096C27.7458 51.6096 27.8767 51.6944 27.8767 51.7979C27.8767 51.9015 28.0462 51.9863 28.2534 51.9863C28.4606 51.9863 28.6301 52.0711 28.6301 52.1747C28.6301 52.2794 29.1325 52.363 29.7603 52.363C30.3881 52.363 30.8904 52.2794 30.8904 52.1747C30.8904 52.0711 30.8057 51.9863 30.7021 51.9863C30.5985 51.9863 30.5137 51.6473 30.5137 51.2329C30.5137 50.8185 30.4289 50.4795 30.3253 50.4795C30.2217 50.4795 30.137 50.3099 30.137 50.1027C30.137 49.8955 30.0522 49.726 29.9486 49.726C29.845 49.726 29.7603 49.5565 29.7603 49.3493C29.7603 49.1421 29.6755 48.9726 29.5719 48.9726C29.4683 48.9726 29.3836 48.844 29.3836 48.6865C29.3836 48.3141 27.0284 45.9589 26.656 45.9589C26.4985 45.9589 26.3699 45.8741 26.3699 45.7705C26.3699 45.667 26.2003 45.5822 25.9932 45.5822C25.6443 45.5822 25.6164 45.7078 25.6164 47.2774Z" fill="url(#paint0_linear)"/>
<defs>
<linearGradient id="paint0_linear" x1="5.20761e-08" y1="12.915" x2="55.7187" y2="15.4568" gradientUnits="userSpaceOnUse">
<stop stop-color="#DF1BFF"/>
<stop offset="1" stop-color="#6B0CE3"/>
</linearGradient>
</defs>
</svg>
